<svg viewBox="0 0 330 200" xmlns="http://www.w3.org/2000/svg"><g><g><g><g><g><line x1="53.1875" y1="177" x2="48.1875" y2="177" style="visibility: inherit;" fill="rgb(0, 0, 0)" stroke="rgb(204, 204, 204)" stroke-width="1px"></line><line x1="53.1875" y1="162.25" x2="48.1875" y2="162.25" style="visibility: inherit;" fill="rgb(0, 0, 0)" stroke="rgb(204, 204, 204)" stroke-width="1px"></line><line x1="53.1875" y1="147.5" x2="48.1875" y2="147.5" style="visibility: inherit;" fill="rgb(0, 0, 0)" stroke="rgb(204, 204, 204)" stroke-width="1px"></line><line x1="53.1875" y1="132.75" x2="48.1875" y2="132.75" style="visibility: inherit;" fill="rgb(0, 0, 0)" stroke="rgb(204, 204, 204)" stroke-width="1px"></line><line x1="53.1875" y1="118" x2="48.1875" y2="118" style="visibility: inherit;" fill="rgb(0, 0, 0)" stroke="rgb(204, 204, 204)" stroke-width="1px"></line><line x1="53.1875" y1="103.25" x2="48.1875" y2="103.25" style="visibility: inherit;" fill="rgb(0, 0, 0)" stroke="rgb(204, 204, 204)" stroke-width="1px"></line><line x1="53.1875" y1="88.50000000000001" x2="48.1875" y2="88.50000000000001" style="visibility: inherit;" fill="rgb(0, 0, 0)" stroke="rgb(204, 204, 204)" stroke-width="1px"></line><line x1="53.1875" y1="73.75000000000001" x2="48.1875" y2="73.75000000000001" style="visibility: inherit;" fill="rgb(0, 0, 0)" stroke="rgb(204, 204, 204)" stroke-width="1px"></line><line x1="53.1875" y1="59.00000000000003" x2="48.1875" y2="59.00000000000003" style="visibility: inherit;" fill="rgb(0, 0, 0)" stroke="rgb(204, 204, 204)" stroke-width="1px"></line><line x1="53.1875" y1="44.25000000000003" x2="48.1875" y2="44.25000000000003" style="visibility: inherit;" fill="rgb(0, 0, 0)" stroke="rgb(204, 204, 204)" stroke-width="1px"></line><line x1="53.1875" y1="29.5" x2="48.1875" y2="29.5" style="visibility: inherit;" fill="rgb(0, 0, 0)" stroke="rgb(204, 204, 204)" stroke-width="1px"></line><line x1="53.1875" y1="14.75" x2="48.1875" y2="14.75" style="visibility: inherit;" fill="rgb(0, 0, 0)" stroke="rgb(204, 204, 204)" stroke-width="1px"></line><line x1="53.1875" y1="0" x2="48.1875" y2="0" style="visibility: inherit;" fill="rgb(0, 0, 0)" stroke="rgb(204, 204, 204)" stroke-width="1px"></line></g><g transform="translate(43.1875, 0)"><text x="0" y="177" dx="0em" dy="0.3em" style="text-anchor: end; visibility: hidden; font-family: &quot;Helvetica Neue&quot;, sans-serif; font-size: 12px; font-weight: 200;" fill="rgb(50, 49, 63)" stroke="none" stroke-width="1px">-0.1</text><text x="0" y="162.25" dx="0em" dy="0.3em" style="text-anchor: end; visibility: inherit; font-family: &quot;Helvetica Neue&quot;, sans-serif; font-size: 12px; font-weight: 200;" fill="rgb(50, 49, 63)" stroke="none" stroke-width="1px">0</text><text x="0" y="147.5" dx="0em" dy="0.3em" style="text-anchor: end; visibility: hidden; font-family: &quot;Helvetica Neue&quot;, sans-serif; font-size: 12px; font-weight: 200;" fill="rgb(50, 49, 63)" stroke="none" stroke-width="1px">0.1</text><text x="0" y="132.75" dx="0em" dy="0.3em" style="text-anchor: end; visibility: inherit; font-family: &quot;Helvetica Neue&quot;, sans-serif; font-size: 12px; font-weight: 200;" fill="rgb(50, 49, 63)" stroke="none" stroke-width="1px">0.2</text><text x="0" y="118" dx="0em" dy="0.3em" style="text-anchor: end; visibility: hidden; font-family: &quot;Helvetica Neue&quot;, sans-serif; font-size: 12px; font-weight: 200;" fill="rgb(50, 49, 63)" stroke="none" stroke-width="1px">0.3</text><text x="0" y="103.25" dx="0em" dy="0.3em" style="text-anchor: end; visibility: inherit; font-family: &quot;Helvetica Neue&quot;, sans-serif; font-size: 12px; font-weight: 200;" fill="rgb(50, 49, 63)" stroke="none" stroke-width="1px">0.4</text><text x="0" y="88.50000000000001" dx="0em" dy="0.3em" style="text-anchor: end; visibility: hidden; font-family: &quot;Helvetica Neue&quot;, sans-serif; font-size: 12px; font-weight: 200;" fill="rgb(50, 49, 63)" stroke="none" stroke-width="1px">0.5</text><text x="0" y="73.75000000000001" dx="0em" dy="0.3em" style="text-anchor: end; visibility: inherit; font-family: &quot;Helvetica Neue&quot;, sans-serif; font-size: 12px; font-weight: 200;" fill="rgb(50, 49, 63)" stroke="none" stroke-width="1px">0.6</text><text x="0" y="59.00000000000003" dx="0em" dy="0.3em" style="text-anchor: end; visibility: hidden; font-family: &quot;Helvetica Neue&quot;, sans-serif; font-size: 12px; font-weight: 200;" fill="rgb(50, 49, 63)" stroke="none" stroke-width="1px">0.7</text><text x="0" y="44.25000000000003" dx="0em" dy="0.3em" style="text-anchor: end; visibility: inherit; font-family: &quot;Helvetica Neue&quot;, sans-serif; font-size: 12px; font-weight: 200;" fill="rgb(50, 49, 63)" stroke="none" stroke-width="1px">0.8</text><text x="0" y="29.5" dx="0em" dy="0.3em" style="text-anchor: end; visibility: hidden; font-family: &quot;Helvetica Neue&quot;, sans-serif; font-size: 12px; font-weight: 200;" fill="rgb(50, 49, 63)" stroke="none" stroke-width="1px">0.9</text><text x="0" y="14.75" dx="0em" dy="0.3em" style="text-anchor: end; visibility: inherit; font-family: &quot;Helvetica Neue&quot;, sans-serif; font-size: 12px; font-weight: 200;" fill="rgb(50, 49, 63)" stroke="none" stroke-width="1px">1</text><text x="0" y="0" dx="0em" dy="0.3em" style="text-anchor: end; visibility: hidden; font-family: &quot;Helvetica Neue&quot;, sans-serif; font-size: 12px; font-weight: 200;" fill="rgb(50, 49, 63)" stroke="none" stroke-width="1px">1.1</text></g><line x1="53.1875" y1="0" x2="53.1875" y2="177" fill="rgb(0, 0, 0)" stroke="rgb(204, 204, 204)" stroke-width="1px"></line></g></g><g transform="translate(53, 0)" clip-path="url(#clip_0)"><clipPath id="clip_0"><rect width="276" height="177"></rect></clipPath><g><g><g><line x1="0" y1="0" x2="0" y2="177" fill="rgb(0, 0, 0)" stroke="rgb(60, 60, 60)" stroke-width="1px" opacity="0.25"></line><line x1="23.067708333333332" y1="0" x2="23.067708333333332" y2="177" fill="rgb(0, 0, 0)" stroke="rgb(60, 60, 60)" stroke-width="1px" opacity="0.25"></line><line x1="46.135416666666664" y1="0" x2="46.135416666666664" y2="177" fill="rgb(0, 0, 0)" stroke="rgb(60, 60, 60)" stroke-width="1px" opacity="0.25"></line><line x1="69.203125" y1="0" x2="69.203125" y2="177" fill="rgb(0, 0, 0)" stroke="rgb(60, 60, 60)" stroke-width="1px" opacity="0.25"></line><line x1="92.27083333333333" y1="0" x2="92.27083333333333" y2="177" fill="rgb(0, 0, 0)" stroke="rgb(60, 60, 60)" stroke-width="1px" opacity="0.25"></line><line x1="115.33854166666667" y1="0" x2="115.33854166666667" y2="177" fill="rgb(0, 0, 0)" stroke="rgb(60, 60, 60)" stroke-width="1px" opacity="0.25"></line><line x1="138.40625" y1="0" x2="138.40625" y2="177" fill="rgb(0, 0, 0)" stroke="rgb(60, 60, 60)" stroke-width="1px" opacity="0.25"></line><line x1="161.47395833333334" y1="0" x2="161.47395833333334" y2="177" fill="rgb(0, 0, 0)" stroke="rgb(60, 60, 60)" stroke-width="1px" opacity="0.25"></line><line x1="184.54166666666666" y1="0" x2="184.54166666666666" y2="177" fill="rgb(0, 0, 0)" stroke="rgb(60, 60, 60)" stroke-width="1px" opacity="0.25"></line><line x1="207.609375" y1="0" x2="207.609375" y2="177" fill="rgb(0, 0, 0)" stroke="rgb(60, 60, 60)" stroke-width="1px" opacity="0.25"></line><line x1="230.67708333333334" y1="0" x2="230.67708333333334" y2="177" fill="rgb(0, 0, 0)" stroke="rgb(60, 60, 60)" stroke-width="1px" opacity="0.25"></line><line x1="253.74479166666666" y1="0" x2="253.74479166666666" y2="177" fill="rgb(0, 0, 0)" stroke="rgb(60, 60, 60)" stroke-width="1px" opacity="0.25"></line><line x1="276.8125" y1="0" x2="276.8125" y2="177" fill="rgb(0, 0, 0)" stroke="rgb(60, 60, 60)" stroke-width="1px" opacity="0.25"></line></g><g><line x1="0" y1="177" x2="276.8125" y2="177" fill="rgb(0, 0, 0)" stroke="rgb(60, 60, 60)" stroke-width="1px" opacity="0.25"></line><line x1="0" y1="162.25" x2="276.8125" y2="162.25" fill="rgb(0, 0, 0)" stroke="rgb(60, 60, 60)" stroke-width="1px" opacity="0.25"></line><line x1="0" y1="147.5" x2="276.8125" y2="147.5" fill="rgb(0, 0, 0)" stroke="rgb(60, 60, 60)" stroke-width="1px" opacity="0.25"></line><line x1="0" y1="132.75" x2="276.8125" y2="132.75" fill="rgb(0, 0, 0)" stroke="rgb(60, 60, 60)" stroke-width="1px" opacity="0.25"></line><line x1="0" y1="118" x2="276.8125" y2="118" fill="rgb(0, 0, 0)" stroke="rgb(60, 60, 60)" stroke-width="1px" opacity="0.25"></line><line x1="0" y1="103.25" x2="276.8125" y2="103.25" fill="rgb(0, 0, 0)" stroke="rgb(60, 60, 60)" stroke-width="1px" opacity="0.25"></line><line x1="0" y1="88.50000000000001" x2="276.8125" y2="88.50000000000001" fill="rgb(0, 0, 0)" stroke="rgb(60, 60, 60)" stroke-width="1px" opacity="0.25"></line><line x1="0" y1="73.75000000000001" x2="276.8125" y2="73.75000000000001" fill="rgb(0, 0, 0)" stroke="rgb(60, 60, 60)" stroke-width="1px" opacity="0.25"></line><line x1="0" y1="59.00000000000003" x2="276.8125" y2="59.00000000000003" fill="rgb(0, 0, 0)" stroke="rgb(60, 60, 60)" stroke-width="1px" opacity="0.25"></line><line x1="0" y1="44.25000000000003" x2="276.8125" y2="44.25000000000003" fill="rgb(0, 0, 0)" stroke="rgb(60, 60, 60)" stroke-width="1px" opacity="0.25"></line><line x1="0" y1="29.5" x2="276.8125" y2="29.5" fill="rgb(0, 0, 0)" stroke="rgb(60, 60, 60)" stroke-width="1px" opacity="0.25"></line><line x1="0" y1="14.75" x2="276.8125" y2="14.75" fill="rgb(0, 0, 0)" stroke="rgb(60, 60, 60)" stroke-width="1px" opacity="0.25"></line><line x1="0" y1="0" x2="276.8125" y2="0" fill="rgb(0, 0, 0)" stroke="rgb(60, 60, 60)" stroke-width="1px" opacity="0.25"></line></g></g></g><g><g><line x1="0" y1="162.25" x2="276.8125" y2="162.25" fill="rgb(0, 0, 0)" stroke="rgb(153, 153, 153)" stroke-width="1.5px"></line></g></g><g><g><line x1="23.067708333333332" y1="0" x2="23.067708333333332" y2="177" fill="rgb(0, 0, 0)" stroke="rgb(153, 153, 153)" stroke-width="1.5px"></line></g></g><g><g><g><g><g><path stroke="rgb(255, 112, 67)" stroke-width="2px" d="M23.116150520833333,162.25L23.260323697916668,162.25L23.33183359375,162.25L23.614413020833332,162.25L23.685922916666666,162.25L23.73551848958333,162.25L23.743592187500003,162.25L23.81394869791667,162.25L23.99964375,162.25L24.237241145833334,162.25L24.60517109375,162.25L24.665147135416667,162.25L24.72396979166667,162.25L25.067678645833336,162.25L25.071138802083333,162.25L25.232612760416664,162.25L25.728568489583335,162.25L25.823146093749997,162.25L25.933871093750003,162.25L25.935024479166668,162.25L26.164548177083333,162.25L26.793143229166667,161.32811286596447L26.811597395833335,161.6968706317702L26.87964713541667,161.91812342744225L27.240656770833333,158.36336395018176L27.242963541666665,153.46488501419904L28.046873177083334,153.29143083099075L28.14260416666667,150.4217317363288L28.248715625,149.62178874705307L28.26832317708333,147.29807273451883L28.801187239583335,141.29446784436703L28.9891890625,140.45793064004306L29.232553385416665,138.11225827201537L29.66853307291667,134.86110487005985L29.880755989583335,135.6760379360452L29.976486979166665,133.39937273814462L30.218697916666667,125.58024859449692L30.794237239583335,123.65439914954709L30.808077864583332,116.96763947483072L30.973011979166667,118.48683368692923L31.102191145833334,116.63272521067044L31.320180989583335,112.75463512453602L31.671963541666667,107.66215607325123L31.675423697916667,109.21604364421994L32.0618078125,110.14837618662888L32.10217630208333,117.16090071241467L32.37091510416666,110.3059154271923L32.502401041666666,105.27104925620233L32.54968984375,103.17200455369313L32.869177604166666,100.99070273219824L32.88071145833334,102.447546639326L33.3074640625,96.86852798357937L33.373207031250004,93.52111679014179L33.74805729166667,85.98142007407719L33.98796145833333,88.83260204444811L34.08715260416667,88.69956122666882L34.253240104166665,89.54161173600149L35.06176328125,83.5937170416001L35.15403411458333,80.02498022495976L35.203629687500005,87.10248813497621L35.645376302083335,89.50524288098582L35.7157328125,90.94689572859151L35.778015625,87.2025124371549L36.36854895833333,86.79963246229293L36.4077640625,91.16727947737577L36.87257838541667,83.64724268642544L36.8783453125,84.66647061185527L37.09748854166667,84.35613236711316L37.24281510416667,78.63867942026792L37.91985234375,75.20820765216075L38.10093385416666,76.83742459129645L38.13207526041667,79.65870475477789L38.77681770833333,75.82022285286672L39.55419947916667,69.82963371172005L39.985565625,69.92278022703202L40.11359140625,69.97866813621924L40.22200963541667,66.32470088173154L40.91404088541666,59.522945529038935L41.24967604166667,60.97314231742335L41.65566770833333,64.60888539045403L42.51032630208333,67.71220623427243L42.75138385416667,64.04294874056347L42.787138802083334,64.60701924433808L43.04088359375,60.33608654660286L43.06625807291666,61.46102692796171L43.30154869791667,59.370366156777024L43.31769609375,63.64721969406622L44.34882265625,66.21333181643976L45.59447890625,69.59674908986385L45.72019791666666,65.17367445391832L45.82515598958334,58.832329672350994L46.12964973958333,61.48064780341062L46.19654609375,58.46026368204636L46.206926562499994,62.17928320922783L46.41684270833333,59.8013199255367L46.50796015625,60.218291955322016L46.64290625,62.31222517319321L46.75709140625,60.802960103915936L46.8020734375,57.13177606234956L47.033903906249996,51.24156563740975L47.0373640625,55.08243938244584L47.12156119791666,60.152588629467516L47.38107291666667,53.97592817768053L47.45488958333333,54.879306906608335L47.5563875,49.890084143964984L47.65673203125,48.74030048637903L48.26687291666667,48.97230529182744L48.72476692708333,47.267758175096446L48.8228046875,49.01065490505789L48.85509947916666,48.21264294303475L49.754740104166665,47.73383576582086L49.76627395833333,44.680926459492525L49.92544114583334,44.69293087569554L50.011945052083334,43.77825852541733L50.088068489583335,45.0732051152504L50.21840104166667,47.69392306915023L50.368341145833334,51.11010384149016L50.404096093750006,51.31606230489409L50.91850598958334,46.83026238293647L51.074213020833334,49.670032429761875L51.07651979166666,53.21764445785713L51.1203484375,53.5024616747143L51.465210677083334,54.59522700482859L51.587469531249994,51.56338620289716L51.8262203125,47.900531721738304L52.19415026041666,42.93719403304303L52.353317447916666,41.80294141982583L52.83889270833333,39.27863985189552L52.87926119791667,46.06093391113731L52.96461171875,43.67718534668239L53.40520494791667,49.621936208009444L53.974977343750005,49.50128672480567L53.97613072916667,53.11639703488342L54.386735937500006,51.59796322093004L54.79157421875,46.99940293255804L54.90460598958333,48.84964175953482L54.94497447916667,47.194160055720914L55.160657552083336,50.81024603343255L55.265615624999995,43.761147620059546L55.8676828125,42.29731357203573L55.98878828125,42.340888143221434L56.48128385416667,41.44515788593287L56.511271875,39.98584473155972L56.5873953125,40.03213183893584L56.74771588541666,42.825529103361504L56.81922578125,42.65781746201691L57.05912994791667,50.854065477210156L57.22060390625,46.553064286326105L57.47204192708333,45.81621357179566L57.67503776041667,45.374103143077406L57.70502578125,43.26508688584644L57.86995989583334,45.687177131507866L58.046427864583336,47.14043127890474L58.21136197916666,48.01238376734287L58.375142708333335,47.613680260405715L58.483560937499995,43.686958156243435L58.49970833333334,44.09654989374607L59.29093072916667,47.10792993624764L59.33360598958334,44.30538296174859L59.83763541666667,52.764479777049175L59.902225,49.54306286622952L60.214792447916665,48.53208771973772L60.47776432291667,48.84737763184265L60.6011765625,49.03655157910559L60.73381588541667,45.46255594746336L60.85492135416666,42.396283568478026L61.00716822916667,41.47839514108682L61.0163953125,39.08391208465213L61.1686421875,44.10034725079129L61.33818984375,46.18833335047478L61.56194661458333,47.44112501028488L61.59424140625,42.66155000617093L61.979472135416664,46.24693000370257L61.99331276041667,43.78878300222155L62.034834635416665,45.079519801332935L62.097117447916666,44.01021188079977L62.13979270833334,44.29050212847986L62.18246796875,47.22430127708793L62.324334375,48.98458076625275L62.700338020833335,48.196998459751654L62.888339843749996,45.880699075851L62.973690364583334,44.49091944551063L63.820275260416665,42.735176667306376L63.844496354166665,40.75985600038382L63.99328307291666,40.49653860023031L64.32545807291666,38.4947981601382L64.53537421875,39.13750389608293L64.63225859375,35.83562733764978L65.31506276041667,37.542001402589875L65.34966432291667,38.56582584155393L65.47422994791667,39.180120504932376L65.5699609375,37.704947302959454L65.97595260416666,37.741718381775684L66.30697421875,42.37315602906543L66.62415520833333,37.77701861743927L66.753334375,36.86308617046359L67.42114453125,36.314726702278165L67.72679166666667,36.90758602136691L67.86519791666667,36.34142661282016L68.02782526041666,38.76735596769211L68.39114166666667,39.301038580615284L68.85941614583334,36.855623148369176L69.09816692708333,41.84149888902152L69.22619270833333,39.301774333412936L69.54452708333332,44.23106460004777L69.77981770833333,43.50113876002865L69.97243307291667,42.141308256017226L70.0335625,44.09103495361035L70.11775963541666,44.3389959721662L70.40264583333334,43.565897583299744L70.66907786458333,45.867663549979824L70.97818515624999,42.63934812998792L71.66444947916668,45.31173387799274L72.02891927083333,44.14954032679566L72.04968020833333,40.686599196077395L72.29189114583333,42.29633451764647L73.26073489583334,41.41842571058788L73.40029453125001,40.891680426352735L73.48333828125,44.26313325581165L73.5144796875,37.06725495348698L73.51909322916667,35.51535297209222L73.59175651041667,41.95921178325534L73.80859296875,39.37240206995321L73.90086380208334,38.74219124197194L74.04734375000001,43.89531474518316L74.05541744791667,40.534063847109906L74.10616640625001,42.204813308265955L74.16729583333334,45.972887984959584L74.75782916666667,43.62435779097575L74.92853020833333,44.98086467458546L75.39911145833332,44.87289380475127L75.55481848958333,42.9643612828508L75.7289796875,44.58486676971049L76.4902140625,46.4790450618263L76.50866822916666,41.162427037095796L76.59978567708335,43.50370622225748L77.62399192708334,41.2209737333545L78.0126828125,38.929459240012704L78.08995963541666,39.39830054400764L78.13494166666666,39.679605326404584L78.29410885416667,43.53588819584277L78.36907890625,38.47465791750565L78.39560677083334,40.0472947505034L78.517865625,40.990876850302044L78.63897109375,38.791401110181255L78.69202682291667,42.081090666108764L79.03227552083332,41.289279399665276L79.89731458333334,40.81419263979919L79.98843203125,38.685390583879524L80.13375859375,32.79873435032772L80.74389947916667,35.71986561019665L80.80156875,31.941294366118L80.92728776041668,35.205401619670795L80.96188932291668,33.476365971802494L81.68160182291666,36.12644458308151L81.86614348958332,37.71649174984893L82.04491822916667,38.670520049909356L82.15218307291666,36.47731202994564L82.81076614583334,35.16138721796739L83.04490338541667,38.05933233078045L83.38053854166667,31.50122439846828L83.45089505208334,32.175734639080986L83.6319765625,36.26794078344858L83.83035885416668,32.270139470069154L84.08871718750001,35.40270868204152L84.12677890625,37.28225020922491L84.303246875,39.33185012553497L84.32054765625,37.795985075321L84.73691979166666,36.874466045192605L85.01142552083333,38.165304627115574L85.02411276041667,38.01793277626936L85.19135364583335,33.32013466576163L85.24210260416666,38.79833079945698L85.49238723958332,39.31962347967419L86.14751015625001,34.101149087804544L86.28130286458334,37.42318945268275L86.43124296875,36.65078867160966L86.4831453125,34.34359820296581L86.84876848958334,36.6467839217795L87.13019453125,37.10682035306772L87.13942161458333,32.773467211840625L87.32627005208333,32.017205327104364L87.38739947916666,33.40719819626264L88.04598255208334,32.397443917757585L88.24205807291666,33.635341350654556L88.25820546874999,33.45620481039276L88.35855,35.19247288623566L88.56500598958333,32.5467337317414L88.60306770833333,37.41241523904486L89.16245963541667,39.4099491434269L89.36891562500001,35.99909448605615L90.47155208333332,37.640081691633696L90.60534479166667,40.46842401498023L90.79334661458333,40.32167940898813L90.82448802083333,39.31175764539287L90.84409557291667,37.78392958723575L91.42194166666667,35.945357752341465L91.47615078125,35.76408965140487L91.61571041666667,37.49907879084296L91.85561458333333,33.008822274505775L91.89021614583334,35.845918364703465L92.47728932291666,42.15755101882209L92.48420963541666,42.25703061129326L92.50958411458333,40.47296836677597L92.61338880208334,37.558781020065595L92.81869140625,33.04464361203938L93.66066276041667,33.10178616722362L93.742553125,34.057946700334185L93.92940156249999,32.78789302020053L94.20852083333332,36.63523581212033L94.73792473958333,35.2561414872722L94.83019557291667,35.35055989236332L95.17275104166666,34.48533593541799L95.20850598958333,33.04432656125081L95.58566302083334,36.7890959367505L95.75867083333333,35.3484575620503L95.984734375,37.249699537230185L96.32267630208334,36.546694722338145L96.50491119791667,33.3592668334029L96.72866796875,36.978060100041745L97.48528880208333,34.539961060025064L97.67675078125,33.077101636015044L97.90973463541667,34.965010981609055L98.37454895833334,36.09775658896544L98.73094505208333,37.69927895337926L98.77938723958333,34.05081737202755L99.24766171875,35.54924042321656L99.53485468749999,33.68266925392996L100.09886015625,34.40647655235799L100.31685,36.68451093141479L100.36875234375,36.20758155884889L100.85202083333334,32.23392393530935L101.80125703125,32.61535436118561L101.82201796874999,29.15671261671139L101.93389635416668,28.92527757002682L101.99271901041668,34.31766654201613L102.1784140625,32.943724925209665L102.84853098958334,32.119359955125816L102.86467838541667,33.46849097307552L103.17609244791667,34.27796958384533L103.48058619791667,37.529281750307206L103.57170364583332,33.94881905018431L103.70664973958334,39.1755414301106L104.3375515625,38.624074858066365L104.47365104166667,36.44944491483983L104.56130833333333,39.754041948903904L104.86003515624999,33.43992516934236L104.953459375,36.10458010160542L105.451721875,36.78149806096326L105.5970484375,34.42202383657798L105.62703645833334,33.00633930194678L105.76082916666667,32.156928581168074L106.00304010416667,31.647282148700867L106.06186276041667,35.02899428922052L106.08723723958333,32.44864657353233L106.12529895833335,32.7441879441194L106.15413359374999,33.843387766471665L106.45401380208332,29.893532659882993L106.45632057291668,33.05486959592983L106.57396588541665,32.186046757557904L106.57742604166667,33.50850305453474L106.75504739583333,32.45822683272084L106.94535598958333,37.35931109963249L107.11836380208332,32.92496165977954L107.27522421875,33.95185199586771L107.47129973958333,35.48986119752064L108.18063177083333,34.568916718512384L108.23484088541666,32.172600031107436L108.30404401041667,30.73481001866449L108.33057187499999,34.48151101119868L108.63391223958334,38.573281606719235L109.45742942708333,32.731468964031535L109.76884348958333,34.75763137841892L110.11255234375001,34.12957882705135L110.13331328125,33.75274729623084L110.22558411458334,36.292273377738496L110.64195625,34.12848902664311L110.97643802083333,30.986468415985854L111.22210911458333,33.71063104959154L111.28093177083333,31.657628629754925L111.44701927083334,31.347702177852995L111.50122838541667,30.23987130671179L111.63617447916667,36.028297784027075L111.7699671875,32.12635367041628L111.77804088541667,31.628937202249773L112.10675572916668,32.252362321349864L112.4896796875,38.15766739280994L112.91758567708334,32.482100435685965L113.18747786458334,27.23301026141158L113.271675,30.536681156846953L113.92564453125,33.44075869410818L114.00407473958334,37.0269552164649L114.09288541666668,31.803673129878945L114.1090328125,33.27907887792736L114.15401484375,32.320572326756434L114.19092317708333,32.667343396053866L114.66727135416667,31.031656037632303L114.87372734375,31.893993622579416L115.30970703125,31.489521173547672L115.37429661458333,28.48121270412861L115.37891015624999,27.59810262247717L115.45388020833333,31.677611573486303L115.52885026041668,30.437816944091793L115.78836197916667,31.537690166455093L115.80681614583334,33.11948909987308L115.97290364583333,28.537318459923853L116.00289166666666,30.397391075954317L116.04556692708333,28.7478096455726L116.48731354166667,31.445560787343595L116.50922786458334,33.98608647240616L116.62687317708333,32.744776883443734L116.93136692708335,29.234366130066235L117.06169947916666,34.50311967803975L117.10206796875,33.97687180682388L118.49420416666666,33.66112308409433L118.53341927083333,37.159173850456625L118.62453671875001,38.336129310273975L119.10665182291666,35.354802586164425L119.67757760416667,35.40975655169865L120.17930026041667,34.52085393101919L120.42381796875,32.143762358611525L120.64526796874999,33.48313241516692L120.74330572916666,34.28675444910016L120.89555260416665,32.92517766946011L121.20812005208333,36.717606601676096L121.30039088541668,37.149313961005646L121.69138854166667,38.33021337660341L121.72714348958334,34.42937802596205L121.76520520833334,32.08887681557724L121.89669114583334,30.684576089346336L121.96935442708333,29.841995653607825L122.2750015625,30.2583223921647L123.15849479166667,30.508118435298826L123.25653255208333,26.04862106117929L123.42146666666667,25.216672636707614L123.86552005208333,31.17062858202459L123.93126302083333,30.133627149214732L124.18039427083333,28.589551289528828L124.36839609375001,30.428730773717348L124.72363880208333,31.532238464230403L125.34300677083333,26.663093078538225L125.50563411458333,28.350980847122912L126.02119739583333,32.129338508273776L126.11923515625,31.630728104964277L126.13768932291667,34.09718686297856L126.57828255208334,32.811437117787165L126.84125442708334,30.1962372706723L126.91276432291666,27.705242362403368L127.14574817708333,28.976270417442038L127.39141927083334,26.05138725046521L128.13419947916665,26.140207350279127L128.371796875,27.115374410167476L128.74549375,29.544224646100503L128.76856145833332,29.15778478766029L128.77202161458334,31.69154587259621L128.870059375,32.289927523557736L128.87351953125,28.039581514134653L129.31757291666668,30.098748908480815L130.01998463541665,33.177999345088494L130.088034375,30.416174607053108L130.47787864583333,32.44657976423187L130.58975703125,33.66482285853914L130.87579661458335,32.552018715123495L131.37175234375,31.88433622907411L132.10415208333333,31.48372673744447L132.39019166666668,30.321486042466688L132.51360390624998,29.624141625480007L132.70506588541667,31.97135997528801L132.85154583333332,30.6140659851728L133.00955963541668,36.252814591103714L133.07414921875,35.948563754662246L133.11105755208334,34.844138252797364L133.19294791666667,33.25960795167845L133.631234375,35.074514771007074L133.73388567708332,34.31970886260427L133.76041354166668,37.55432531756256L134.13987734375002,36.72947019053757L134.40976953125,32.54705711432254L134.48473958333332,33.72510926859354L135.126021875,29.822565561156154L135.20675885416668,32.0904143366937L135.42590208333334,31.607373602016224L135.63351145833334,30.395674161209712L135.86418854166666,31.51240449672585L135.95645937499998,30.338692698035516L136.08333177083333,27.790715618821338L136.343996875,31.79317937129281L136.565446875,30.507157622775708L136.64618385416665,28.813669573665436L136.70269973958332,25.95382674419926L137.31630078125,31.612921046519574L137.83647760416667,30.399002627911727L137.95873645833333,32.436276576747076L137.96104322916668,34.58051594604825L138.27245729166665,34.02330956762896L139.05906614583333,33.68898574057738L139.08559401041666,29.800891444346462L139.27244244791666,30.233659866607866L139.3958546875,29.57144591996473L139.46390442708335,32.86161755197884L139.55617526041667,32.07009553118732L139.64267916666665,34.360807318712375L139.73841015625,33.891484391227465L139.82952760416669,32.68801563473647L139.94601953125002,34.7315593808419L140.05674453125,32.270185628505146L140.1351747395833,32.63711137710311L140.62421015625,33.77914182626188L140.64727786458332,32.620610095757144L141.06711015625,31.00361605745428L141.30009401041667,30.03341963447258L141.33700234375,30.373176780683565L141.39928515625,35.18640606841012L141.50308984375002,32.543093641046084L141.728,34.64460618462766L141.76375494791665,31.29613871077663L141.82719114583335,33.896433226466L141.86755963541665,30.847234935879584L141.87909348958334,29.017715961527784L142.10400364583333,29.763754576916682L142.46270651041667,27.445752746149992L142.95866223958333,26.976826647690018L143.33812604166667,28.539220988614005L143.40502239583333,32.242282593168426L143.831775,27.08911955590108L143.96787447916665,24.919096733540613L144.03707760416668,28.226458040124385L144.053225,32.97649982407464L144.07052578125,31.217149894444788L144.08551979166666,31.083414936666884L144.28044192708333,31.925048962000147L144.67374635416667,31.50815437720007L144.8767421875,33.101767626320054L145.06589739583333,30.370435575792044L145.08204479166668,28.73163634547521L145.5687734375,29.59210680728515L145.63451640625,30.108389084371083L145.7763828125,30.418158450622656L145.97937864583335,33.36964507037359L146.0947171875,32.37491204222417L146.59874661458335,30.856197225334512L147.361134375,29.944968335200713L147.44533151041665,31.241981001120422L148.15120338541666,35.70768860067224L148.3092171875,31.933988160403374L149.06583802083335,32.435392896242035L149.06699140625,29.970610737745233L149.13388776041666,31.25736644264714L149.36456484375,32.02941986558832L149.7348015625,31.570776919352994L150.01276744791667,27.608091151611774L150.16040078125,26.152354690967087L150.1984625,29.888287814580252L150.42221927083335,31.207972688748185L150.61598802083333,31.077908613248894L150.67942421875,30.999870167949354L150.79014921875,29.109297100769624L151.31724635416668,27.053078260461774L151.36453515625,30.428721956277087L151.46603307291667,28.766608173766258L151.72208463541665,27.769339904259766L151.89855260416667,31.780353942555877L152.14883723958332,29.57758736553353L152.78896614583334,28.255927419320102L153.01272291666666,26.541056451592056L153.05770494791668,28.27775887095524L153.28722864583335,25.632280322573138L153.77165052083333,29.576243193543917L154.07960442708332,30.098870916126373L154.25491901041667,30.412447549675818L154.530578125,31.522468529805508L154.89043437499998,27.57910611788327L155.08304973958334,24.291213670729974L155.499421875,29.693478202438L155.81775624999997,27.403586921462818L155.87888567708333,27.873402152877702L156.29064427083335,25.3896662917266L156.30448489583335,23.899424775035953L156.58937109375,26.692779865021578L156.71970364583333,24.681292919012947L156.90539869791667,28.083775751407757L157.00920338541664,29.203390450844665L157.38290026041668,27.109534270506828L157.63664505208334,33.2282205623041L157.68047369791665,26.75880733738245L157.76351744791668,28.4084094024295L157.80849947916667,28.47629564145771L158.03225625,30.36077738487461L158.04840364583333,29.64771643092476L158.0680111979167,32.90737985855486L158.19257682291666,30.25380291513295L158.74620182291667,27.739781749079782L158.9653450520833,30.840744049447892L159.09913776041668,31.779446429668724L159.35288255208334,31.420792857801246L159.38633072916667,31.20560071468077L159.91804140624998,29.232735428808468L160.21446145833332,32.6583912572851L160.24790963541668,30.104409754371062L160.31826614583332,32.25952085262267L160.66889531249998,29.86508751157359L160.8626640625,27.50655250694416L161.44973723958333,30.700806504166508L162.84879375,32.617358902499916L162.84994713541667,32.84541534149997L163.01026770833332,30.216624204899972L163.04486927083335,30.483099522940023L163.09215807291667,35.25235971376404L163.59042057291668,32.58266582825843L163.63886276041666,32.824599496955074L164.01717317708335,30.20413469817305L164.49813489583335,32.31935581890383L164.51197552083335,28.979113491342304L164.63308098958333,27.896843094805376L165.01254479166667,31.856855856883243L165.63652630208333,31.467238514129946L165.66420755208333,28.46784310847798L165.7022692708333,29.433830865086776L166.20629869791668,30.93529851905211L166.31471692708334,28.148679111431278L166.70110104166665,24.632957466858755L166.96407291666665,24.36727448011527L167.03096927083334,26.97348968806915L167.29048098958333,23.927843812841502L167.5753671875,28.55358128770493L168.90637395833332,26.719648772622975L169.18664661458334,30.22866426357379L169.4726861979167,32.33407355814427L169.53381562500002,29.90981913488659L169.65953463541666,29.377141480931954L169.81293489583334,29.05753488855919L170.0251578125,27.943895933135536L170.17279114583332,26.353837559881327L170.28236276041667,29.087302535928785L170.45306380208334,27.961756521557277L170.48997213541668,25.442678912934383L170.56032864583335,30.38435734776064L170.58108958333332,30.583739408656413L170.83022083333333,28.85961864519382L171.05167083333333,29.66889618711633L171.17162291666665,25.545087712269776L171.68372604166666,23.07080262736187L172.02282135416667,23.429981576417134L172.22120364583336,24.567363945850303L172.3227015625,28.015418367510165L172.3365421875,27.318626020506088L172.34576927083333,35.197425612303675L172.4334265625,31.627830367382217L172.48302213541666,32.25169822042935L172.92130859374998,28.938518932257637L173.08970286458336,28.794361359354554L173.81864244791666,31.47349181561276L174.07584739583334,31.237220089367668L174.72751015625,30.173582053620606L174.74019739583335,27.69164923217238L174.9455,27.12436453930343L175.0077828125,28.627743723582086L175.17156354166667,29.52977123414928L176.094271875,30.992862740489556L176.371084375,27.261342644293734L176.70556614583333,25.944305586576263L176.8347453125,29.763458351945758L177.07695625000002,27.445575011167477L177.16,26.976720006700504L177.45988020833335,25.773532004020296L177.62942786458333,25.051619202412212L178.05502708333333,28.305971521447304L178.07002109375,32.102332912868405L178.16805885416667,32.53639974772105L178.63287317708333,31.87496484863263L178.75513203125,28.712478909179595L179.4840716145833,27.736862345507774L179.78049166666665,34.52649240730466L180.16918255208333,29.3815204443828L180.25107291666666,29.060162266629675L180.34103697916666,30.711097359977828L180.70435338541665,30.779783415986685L180.7101203125,28.055370049592L180.72742109375,31.03009702975521L181.10803828125,32.81493321785317L181.14494661458332,32.042084930711894L181.37216354166668,27.89087595842713L181.6374421875,28.1657755750563L181.73317317708333,29.25259034503378L181.7550875,31.74842920702028L181.87388619791668,34.16780752421218L182.19568072916664,32.85380951452731L182.74699895833334,30.2216607087164L182.77929375,30.48612142522984L182.87848489583334,30.64479785513791L183.31792473958333,29.818128713082757L183.6858546875,26.55650222784962L183.85309557291666,34.7401513367098L183.90615130208334,33.19721580202591L184.51283203124999,30.427704481215557L184.55896744791667,33.37537268872933L184.59356901041667,32.37834861323762L184.60510286458333,30.858259167942578L184.69276015625,26.258705500765558L184.73197526041668,28.10834830045934L184.83231979166666,26.45250898027564L184.86807473958334,27.302755388165366L185.40670572916667,24.12540323289923L185.68236484375,26.82836693973954L185.95110364583334,25.68452016384373L186.67888984375,25.920087098306254L186.72041171875,26.98330225898377L186.83229010416667,24.85560635539025L187.07450104166665,30.03211381323419L187.07565442708332,27.606768287940525L187.42051666666669,27.073435972764315L187.71462994791668,24.909686583658583L187.87725729166667,27.298936950195156L188.21635260416667,26.88873717011711L188.39628072916668,24.798867302070278L188.56121484374998,29.076195381242172L188.66040598958332,29.798842228745315L188.88646953125,31.154305337247195L188.91530416666666,31.045708202348322L189.06063072916666,30.058674921408993L189.14136770833335,32.232079952845396L189.41587343749998,30.77049797170727L189.48392317708334,29.893548783024357L189.62117604166667,31.21112926981465L189.76419583333333,30.157927561888783L191.02715286458334,29.52600653713327L191.12865078125,30.990603922279973L191.17363281250002,29.10373735336796L191.22092161458335,29.815367412020805L191.82183541666666,28.39859544721247L191.92217994791667,27.548532268327477L192.26473541666667,27.96036936099651L193.0375036458333,29.1293466165979L193.18167682291667,27.065107969958746L193.98673984375,30.435939781975264L194.10092500000002,29.692813869185187L194.25778541666665,32.934438321511095L194.3984984375,31.19191299290665L194.46539479166668,27.38077279574398L194.54497838541667,25.094088677446393L194.54959192708333,29.25332820646784L194.66608385416666,30.8269969238807L194.765275,28.08369815432843L195.43193177083333,30.125218892597076L195.56226432291666,30.428256335558274L195.70989765625,30.610078801334964L195.94403489583334,27.95354728080099L196.00285755208333,32.8127533684806L196.08244114583331,32.04077702108839L196.0870546875,29.733841212653033L196.69488880208334,30.193429727591848L196.716803125,24.937932836555092L196.80907395833333,25.472134701933044L196.94978697916665,27.636405821159855L197.07089244791666,29.85684349269593L197.2773484375,28.423481095617575L197.29349583333334,26.641588657370562L197.33501770833334,26.494328194422337L197.38230651041667,28.249721916653385L197.49072473958333,29.302958149992037L197.547240625,29.934899889995222L197.65911901041667,28.470314933997145L197.75485,24.825938960398304L197.85519453125,23.561188376238988L197.87595546875,25.56796302574341L198.0316625,24.92827781544605L198.98551223958333,28.231966689267637L199.26578489583335,26.52668001356062L200.176959375,26.42538300813635L200.25423619791667,31.89585480488182L200.32459270833334,30.56876288292912L200.73981145833332,32.53813272975748L201.28997630208332,30.032254637854493L201.45491041666668,25.763102782712707L202.06043776041668,25.967236669627624L202.15040182291668,28.85534200177659L202.516025,25.97883020106596L202.67288541666665,26.096673120639565L202.6901861979167,26.16737887238375L203.35222942708333,27.131677323430267L203.44796041666666,27.71025639405815L203.747840625,27.1355288364349L203.94852968749998,27.712567301860958L204.03272682291666,30.82441538111658L204.20112109375,30.847774228669977L204.22303541666668,29.018039537201986L204.29915885416668,30.68582372232123L204.48485390625,30.76461923339275L204.58981197916668,30.81189654003566L204.64517447916668,27.152762924021374L204.86777786458333,27.72290775441286L205.08230755208334,28.064994652647727L205.21840703125002,30.113996791588647L205.29683723958334,31.3433980749532L205.34989296875,28.393538844971914L206.1076671875,28.46737330698315L206.2875953125,28.511673984189883L206.43753541666666,27.61637939051394L206.62092369791668,28.92295263430836L206.92657083333336,31.55064658058504L207.05805677083336,26.674137948351017L207.35447682291667,27.435732769010627L207.84235885416666,27.892689661406365L207.900028125,28.166863796843813L208.09841041666667,24.643868278106282L208.14108567708334,27.139445966863775L208.42597187500002,26.793042580118282L208.7097046875,27.507075548070986L208.94614869791667,28.857370328842592L208.97844348958333,27.823797197305538L209.18259270833335,27.203653318383346L209.85847656250002,30.51906699103003L209.88500442708335,31.586440194618035L210.0799265625,31.304989116770827L210.08107994791666,31.136118470062513L210.15374322916668,28.26917108203753L210.2483208333333,30.23650264922253L210.39710755208336,30.495026589533524L210.46285052083334,29.728265953720125L210.58856953125002,35.72133457223208L210.67045989583332,30.09842574333925L210.82616692708334,31.33405544600359L211.21716458333333,32.075433267602165L211.41093333333333,30.676509960561305L212.17216770833332,32.60278097633682L212.30711380208334,32.8366685858021L212.94032239583333,34.82075115148129L213.16753932291667,31.401825690888785L213.21367473958333,28.42859541453325L213.35554114583334,28.488407248719966L213.91031953125,28.52429434923198L214.06487317708334,27.623951609539176L214.29901041666668,25.239995965723494L214.52622734375,23.80962257943412L214.8733963541667,24.79514854766049L214.89992421875002,28.152089128596288L215.12137421875002,30.166253477157795L215.5331328125,29.531002086294706L215.62194348958334,26.384226251776795L215.85492734374998,29.10553575106607L215.95296510416665,27.97269645063966L216.08099088541667,26.371117870383813L216.13981354166668,29.097670722230276L216.425853125,28.889852433338177L216.87913359375,30.60891146000293L217.04406770833333,26.109096876001757L217.28512526041666,28.940458125601054L217.46966692708332,32.48302487536063L217.66689583333334,32.7648149252164L217.83529010416666,29.246388955129845L217.84797734375,28.979083373077884L217.9967640625,28.81870002384673L218.01983177083335,28.722470014308044L218.36238723958334,27.74285700858485L218.62881927083333,24.389464205150915L218.92985286458335,25.143053523090572L218.99674921875,26.51708211385437L219.10055390624998,23.653999268312617L219.360065625,25.62364956098756L219.71415494791668,24.96168973659252L220.54113229166666,23.642638841955517L221.01171354166667,22.851208305173344L221.05669557291665,26.985724983104006L221.06822942708334,24.85705998986242L221.71643203125,21.736110993917464L221.9298083333333,23.5510415963505L222.571090625,20.952499957810318L222.71065026041668,24.002749974686168L222.80407447916667,25.83289998481169L222.82137526041666,22.321614990887042L222.94363411458332,24.82421899453223L223.1454765625,23.56015639671935L223.24466770833334,25.567343838031633L223.46265755208336,25.84978130281897L224.23427239583333,28.784868781691358L224.50301119791666,29.624046269014855L224.8201921875,25.518177761408907L225.03702864583335,27.66403165684534L225.10623177083332,24.342168994107226L225.22503046875,26.036551396464347L225.3461359375,27.975055837878585L225.54567161458334,26.37253350272715L226.15696588541667,30.020395101636325L226.37380234375,31.287237060981795L226.38994973958336,25.59421723658906L226.40725052083334,24.944030341953436L226.4879875,28.241418205172067L226.73596536458334,31.14172592310325L227.31496484374998,31.960035553861957L228.00699609375002,30.607271332317197L228.11310755208333,27.95186279939034L228.25843411458334,30.04611767963422L228.5917625,28.537045607780527L229.13270026041667,31.31910236466834L229.13962057291664,29.300836418800998L229.17883567708333,29.93362685128062L229.32877578125,31.23517611076838L229.71631328125,35.703605666461044L229.74976145833332,33.77528839987664L230.05194843750002,30.774548039925975L230.10846432291666,30.817853823955602L230.308,28.078212294373373L230.63786822916666,31.04380237662403L231.04039973958334,27.29190642597439L231.07500130208334,26.884518855584645L231.37372812499999,27.561961313350793L231.88698463541667,27.968426788010447L231.89159817708335,29.134181072806257L231.955034375,32.59925864368378L232.13842265625,26.381430186210252L232.17302421875002,24.49448311172617L232.29297630208333,25.20606486703568L232.36448619791668,24.71113892022143L232.56402187499998,29.94543335213288L233.0841986979167,31.24226001127974L233.56285364583334,31.098481006767855L233.94693098958334,30.090338604060747L234.0092138020833,26.719828162436443L234.07265,28.385021897461854L234.07841692708334,27.54038813847714L234.39559791666667,23.346107883086262L234.44980703124997,23.595164729851774L234.45211380208335,28.35397383791107L234.69778489583334,29.36550930274663L234.8269640625,27.206805581648013L235.07148177083334,26.833458348988813L235.19950755208333,32.1407000093933L235.21104140625,29.793795005635985L235.46247942708334,25.62002700338158L236.14989713541667,24.959516202028965L236.16143098958335,22.71945972121739L236.24216796874998,23.21917583273043L236.51090677083334,28.128380499638297L237.15334244791666,29.230153299782955L237.60316276041667,27.125591979869796L237.86498125,25.862855187921895L237.87997526041667,25.105213112753148L238.12218619791668,26.494377867651878L238.2167638020833,27.32787672059115L238.39092499999998,25.062351032354684L238.42321979166664,26.468660619412816L238.66427734375,28.234321371647695L238.78999635416665,33.90309282298864L238.8545859375,31.773105693793184L238.91225520833333,30.495113416275927L238.92494244791666,26.962693049765534L239.4428125,27.608865829859326L239.52816302083335,25.2309444979156L239.83842369791668,29.33544169874935L239.8914794270833,29.954390019249644L239.98490364583336,27.560134011549792L240.33783958333333,26.123580406929875L241.32398411458334,26.183523244157954L241.34820520833333,25.29761394649475L241.35627890625,26.609818367896878L241.38280677083335,27.397141020738133L241.4289421875,25.103909612442862L241.72420885416668,25.571720767465735L241.892603125,27.69615746047944L242.1302005208333,28.048944476287687L242.13366067708333,31.026241685772618L242.46698906249998,28.203245011463594L242.60078177083335,28.353197006878133L242.72073385416667,25.67754320412689L244.03905338541665,24.99402592247617L244.76568619791666,25.505790553485724L246.01595598958335,27.656599332091446L246.05517109375,27.10333459925485L246.25470677083334,26.77137575955291L246.515371875,28.415950455731746L246.55689375,26.637070273439065L247.2558453125,28.335367164063427L247.36195677083333,27.510595298438062L247.54073151041666,24.250107179062837L247.92826901041667,24.137564307437742L248.30311927083332,22.226288584462623L248.32042005208334,24.767023150677574L248.43921874999998,22.60396389040656L248.56955130208334,23.149878334243937L248.69181015624997,23.477427000546385L249.02629192708332,23.673956200327808L249.70332916666666,24.71374872019672L249.96860781249998,22.57199923211803L250.02627708333333,24.974449539270807L250.29040234375,24.572169723562496L250.43226875,22.487051834137475L250.54299375,26.76723110048252L251.12199322916666,26.569713660289523L251.33998307291668,24.607453196173708L251.66985130208334,25.27384691770422L251.91090885416665,26.595558150622566L252.41955182291667,25.544834890373522L252.42416536458333,26.75815093422412L252.89013307291668,24.720515560534466L252.92242786458334,27.185434336320697L253.3549473958333,31.430010601792418L253.35840755208335,29.367381361075445L253.5002739583333,29.05167881664528L253.63868020833334,26.096632289987184L253.74363828125,26.16735437399231" style="fill: none;" fill="none"></path></g></g></g></g><g opacity="0.2"><g><g><g><path stroke="rgb(255, 112, 67)" stroke-width="2px" d="M23.116150520833333,162.25L23.260323697916668,162.25L23.33183359375,162.25L23.614413020833332,162.25L23.685922916666666,162.25L23.73551848958333,162.25L23.743592187500003,162.25L23.81394869791667,162.25L23.99964375,162.25L24.237241145833334,162.25L24.60517109375,162.25L24.665147135416667,162.25L24.72396979166667,162.25L25.067678645833336,162.25L25.071138802083333,162.25L25.232612760416664,162.25L25.728568489583335,162.25L25.823146093749997,162.25L25.933871093750003,162.25L25.935024479166668,162.25L26.164548177083333,162.25L26.793143229166667,159.9453125L26.811597395833335,162.25L26.87964713541667,162.25L27.240656770833333,153.03125L27.242963541666665,146.1171875L28.046873177083334,153.03125L28.14260416666667,146.1171875L28.248715625,148.421875L28.26832317708333,143.8125L28.801187239583335,132.2890625L28.9891890625,139.203125L29.232553385416665,134.59375L29.66853307291667,129.984375L29.880755989583335,136.8984375L29.976486979166665,129.984375L30.218697916666667,113.85156250000001L30.794237239583335,120.76562500000001L30.808077864583332,106.93750000000001L30.973011979166667,120.76562500000001L31.102191145833334,113.85156250000001L31.320180989583335,106.93750000000001L31.671963541666667,100.02343750000001L31.675423697916667,111.54687500000001L32.0618078125,111.54687500000001L32.10217630208333,127.67968750000001L32.37091510416666,100.02343750000001L32.502401041666666,97.71875000000001L32.54968984375,100.02343750000001L32.869177604166666,97.71875000000001L32.88071145833334,104.63281250000001L33.3074640625,88.50000000000001L33.373207031250004,88.50000000000001L33.74805729166667,74.67187500000001L33.98796145833333,93.10937500000001L34.08715260416667,88.50000000000001L34.253240104166665,90.80468750000001L35.06176328125,74.67187500000001L35.15403411458333,74.67187500000001L35.203629687500005,97.71875000000001L35.645376302083335,93.10937500000001L35.7157328125,93.10937500000001L35.778015625,81.58593750000001L36.36854895833333,86.19531250000001L36.4077640625,97.71875000000001L36.87257838541667,72.36718750000001L36.8783453125,86.19531250000001L37.09748854166667,83.89062500000003L37.24281510416667,70.06250000000003L37.91985234375,70.06250000000003L38.10093385416666,79.28125000000001L38.13207526041667,83.89062500000003L38.77681770833333,70.06250000000003L39.55419947916667,60.843750000000014L39.985565625,70.06250000000003L40.11359140625,70.06250000000003L40.22200963541667,60.843750000000014L40.91404088541666,49.32031250000003L41.24967604166667,63.14843750000003L41.65566770833333,70.06250000000003L42.51032630208333,72.36718750000001L42.75138385416667,58.539062500000014L42.787138802083334,65.45312500000001L43.04088359375,53.929687500000014L43.06625807291666,63.14843750000003L43.30154869791667,56.23437500000003L43.31769609375,70.06250000000003L44.34882265625,70.06250000000003L45.59447890625,74.67187500000001L45.72019791666666,58.539062500000014L45.82515598958334,49.32031250000003L46.12964973958333,65.45312500000001L46.19654609375,53.929687500000014L46.206926562499994,67.75781250000001L46.41684270833333,56.23437500000003L46.50796015625,60.843750000000014L46.64290625,65.45312500000001L46.75709140625,58.539062500000014L46.8020734375,51.625000000000014L47.033903906249996,42.40625000000003L47.0373640625,60.843750000000014L47.12156119791666,67.75781250000001L47.38107291666667,44.7109375L47.45488958333333,56.23437500000003L47.5563875,42.40625000000003L47.65673203125,47.01562500000003L48.26687291666667,49.32031250000003L48.72476692708333,44.7109375L48.8228046875,51.625000000000014L48.85509947916666,47.01562500000003L49.754740104166665,47.01562500000003L49.76627395833333,40.10156250000003L49.92544114583334,44.7109375L50.011945052083334,42.40625000000003L50.088068489583335,47.01562500000003L50.21840104166667,51.625000000000014L50.368341145833334,56.23437500000003L50.404096093750006,51.625000000000014L50.91850598958334,40.10156250000003L51.074213020833334,53.929687500000014L51.07651979166666,58.539062500000014L51.1203484375,53.929687500000014L51.465210677083334,56.23437500000003L51.587469531249994,47.01562500000003L51.8262203125,42.40625000000003L52.19415026041666,35.49218750000003L52.353317447916666,40.10156250000003L52.83889270833333,35.49218750000003L52.87926119791667,56.23437500000003L52.96461171875,40.10156250000003L53.40520494791667,58.539062500000014L53.974977343750005,49.32031250000003L53.97613072916667,58.539062500000014L54.386735937500006,49.32031250000003L54.79157421875,40.10156250000003L54.90460598958333,51.625000000000014L54.94497447916667,44.7109375L55.160657552083336,56.23437500000003L55.265615624999995,33.18750000000003L55.8676828125,40.10156250000003L55.98878828125,42.40625000000003L56.48128385416667,40.10156250000003L56.511271875,37.79687500000003L56.5873953125,40.10156250000003L56.74771588541666,47.01562500000003L56.81922578125,42.40625000000003L57.05912994791667,63.14843750000003L57.22060390625,40.10156250000003L57.47204192708333,44.7109375L57.67503776041667,44.7109375L57.70502578125,40.10156250000003L57.86995989583334,49.32031250000003L58.046427864583336,49.32031250000003L58.21136197916666,49.32031250000003L58.375142708333335,47.01562500000003L58.483560937499995,37.79687500000003L58.49970833333334,44.7109375L59.29093072916667,51.625000000000014L59.33360598958334,40.10156250000003L59.83763541666667,65.45312500000001L59.902225,44.7109375L60.214792447916665,47.01562500000003L60.47776432291667,49.32031250000003L60.6011765625,49.32031250000003L60.73381588541667,40.10156250000003L60.85492135416666,37.79687500000003L61.00716822916667,40.10156250000003L61.0163953125,35.49218750000003L61.1686421875,51.625000000000014L61.33818984375,49.32031250000003L61.56194661458333,49.32031250000003L61.59424140625,35.49218750000003L61.979472135416664,51.625000000000014L61.99331276041667,40.10156250000003L62.034834635416665,47.01562500000003L62.097117447916666,42.40625000000003L62.13979270833334,44.7109375L62.18246796875,51.625000000000014L62.324334375,51.625000000000014L62.700338020833335,47.01562500000003L62.888339843749996,42.40625000000003L62.973690364583334,42.40625000000003L63.820275260416665,40.10156250000003L63.844496354166665,37.79687500000003L63.99328307291666,40.10156250000003L64.32545807291666,35.49218750000003L64.53537421875,40.10156250000003L64.63225859375,30.88281250000003L65.31506276041667,40.10156250000003L65.34966432291667,40.10156250000003L65.47422994791667,40.10156250000003L65.5699609375,35.49218750000003L65.97595260416666,37.79687500000003L66.30697421875,49.32031250000003L66.62415520833333,30.88281250000003L66.753334375,35.49218750000003L67.42114453125,35.49218750000003L67.72679166666667,37.79687500000003L67.86519791666667,35.49218750000003L68.02782526041666,42.40625000000003L68.39114166666667,40.10156250000003L68.85941614583334,33.18750000000003L69.09816692708333,49.32031250000003L69.22619270833333,35.49218750000003L69.54452708333332,51.625000000000014L69.77981770833333,42.40625000000003L69.97243307291667,40.10156250000003L70.0335625,47.01562500000003L70.11775963541666,44.7109375L70.40264583333334,42.40625000000003L70.66907786458333,49.32031250000003L70.97818515624999,37.79687500000003L71.66444947916668,49.32031250000003L72.02891927083333,42.40625000000003L72.04968020833333,35.49218750000003L72.29189114583333,44.7109375L73.26073489583334,40.10156250000003L73.40029453125001,40.10156250000003L73.48333828125,49.32031250000003L73.5144796875,26.2734375L73.51909322916667,33.18750000000003L73.59175651041667,51.625000000000014L73.80859296875,35.49218750000003L73.90086380208334,37.79687500000003L74.04734375000001,51.625000000000014L74.05541744791667,35.49218750000003L74.10616640625001,44.7109375L74.16729583333334,51.625000000000014L74.75782916666667,40.10156250000003L74.92853020833333,47.01562500000003L75.39911145833332,44.7109375L75.55481848958333,40.10156250000003L75.7289796875,47.01562500000003L76.4902140625,49.32031250000003L76.50866822916666,33.18750000000003L76.59978567708335,47.01562500000003L77.62399192708334,37.79687500000003L78.0126828125,35.49218750000003L78.08995963541666,40.10156250000003L78.13494166666666,40.10156250000003L78.29410885416667,49.32031250000003L78.36907890625,30.88281250000003L78.39560677083334,42.40625000000003L78.517865625,42.40625000000003L78.63897109375,35.49218750000003L78.69202682291667,47.01562500000003L79.03227552083332,40.10156250000003L79.89731458333334,40.10156250000003L79.98843203125,35.49218750000003L80.13375859375,23.96875L80.74389947916667,40.10156250000003L80.80156875,26.2734375L80.92728776041668,40.10156250000003L80.96188932291668,30.88281250000003L81.68160182291666,40.10156250000003L81.86614348958332,40.10156250000003L82.04491822916667,40.10156250000003L82.15218307291666,33.18750000000003L82.81076614583334,33.18750000000003L83.04490338541667,42.40625000000003L83.38053854166667,21.6640625L83.45089505208334,33.18750000000003L83.6319765625,42.40625000000003L83.83035885416668,26.2734375L84.08871718750001,40.10156250000003L84.12677890625,40.10156250000003L84.303246875,42.40625000000003L84.32054765625,35.49218750000003L84.73691979166666,35.49218750000003L85.01142552083333,40.10156250000003L85.02411276041667,37.79687500000003L85.19135364583335,26.2734375L85.24210260416666,47.01562500000003L85.49238723958332,40.10156250000003L86.14751015625001,26.2734375L86.28130286458334,42.40625000000003L86.43124296875,35.49218750000003L86.4831453125,30.88281250000003L86.84876848958334,40.10156250000003L87.13019453125,37.79687500000003L87.13942161458333,26.2734375L87.32627005208333,30.88281250000003L87.38739947916666,35.49218750000003L88.04598255208334,30.88281250000003L88.24205807291666,35.49218750000003L88.25820546874999,33.18750000000003L88.35855,37.79687500000003L88.56500598958333,28.578125L88.60306770833333,44.7109375L89.16245963541667,42.40625000000003L89.36891562500001,30.88281250000003L90.47155208333332,40.10156250000003L90.60534479166667,44.7109375L90.79334661458333,40.10156250000003L90.82448802083333,37.79687500000003L90.84409557291667,35.49218750000003L91.42194166666667,33.18750000000003L91.47615078125,35.49218750000003L91.61571041666667,40.10156250000003L91.85561458333333,26.2734375L91.89021614583334,40.10156250000003L92.47728932291666,51.625000000000014L92.48420963541666,42.40625000000003L92.50958411458333,37.79687500000003L92.61338880208334,33.18750000000003L92.81869140625,26.2734375L93.66066276041667,33.18750000000003L93.742553125,35.49218750000003L93.92940156249999,30.88281250000003L94.20852083333332,42.40625000000003L94.73792473958333,33.18750000000003L94.83019557291667,35.49218750000003L95.17275104166666,33.18750000000003L95.20850598958333,30.88281250000003L95.58566302083334,42.40625000000003L95.75867083333333,33.18750000000003L95.984734375,40.10156250000003L96.32267630208334,35.49218750000003L96.50491119791667,28.578125L96.72866796875,42.40625000000003L97.48528880208333,30.88281250000003L97.67675078125,30.88281250000003L97.90973463541667,37.79687500000003L98.37454895833334,37.79687500000003L98.73094505208333,40.10156250000003L98.77938723958333,28.578125L99.24766171875,37.79687500000003L99.53485468749999,30.88281250000003L100.09886015625,35.49218750000003L100.31685,40.10156250000003L100.36875234375,35.49218750000003L100.85202083333334,26.2734375L101.80125703125,33.18750000000003L101.82201796874999,23.96875L101.93389635416668,28.578125L101.99271901041668,42.40625000000003L102.1784140625,30.88281250000003L102.84853098958334,30.88281250000003L102.86467838541667,35.49218750000003L103.17609244791667,35.49218750000003L103.48058619791667,42.40625000000003L103.57170364583332,28.578125L103.70664973958334,47.01562500000003L104.3375515625,37.79687500000003L104.47365104166667,33.18750000000003L104.56130833333333,44.7109375L104.86003515624999,23.96875L104.953459375,40.10156250000003L105.451721875,37.79687500000003L105.5970484375,30.88281250000003L105.62703645833334,30.88281250000003L105.76082916666667,30.88281250000003L106.00304010416667,30.88281250000003L106.06186276041667,40.10156250000003L106.08723723958333,28.578125L106.12529895833335,33.18750000000003L106.15413359374999,35.49218750000003L106.45401380208332,23.96875L106.45632057291668,37.79687500000003L106.57396588541665,30.88281250000003L106.57742604166667,35.49218750000003L106.75504739583333,30.88281250000003L106.94535598958333,44.7109375L107.11836380208332,26.2734375L107.27522421875,35.49218750000003L107.47129973958333,37.79687500000003L108.18063177083333,33.18750000000003L108.23484088541666,28.578125L108.30404401041667,28.578125L108.33057187499999,40.10156250000003L108.63391223958334,44.7109375L109.45742942708333,23.96875L109.76884348958333,37.79687500000003L110.11255234375001,33.18750000000003L110.13331328125,33.18750000000003L110.22558411458334,40.10156250000003L110.64195625,30.88281250000003L110.97643802083333,26.2734375L111.22210911458333,37.79687500000003L111.28093177083333,28.578125L111.44701927083334,30.88281250000003L111.50122838541667,28.578125L111.63617447916667,44.7109375L111.7699671875,26.2734375L111.77804088541667,30.88281250000003L112.10675572916668,33.18750000000003L112.4896796875,47.01562500000003L112.91758567708334,23.96875L113.18747786458334,19.35937500000003L113.271675,35.49218750000003L113.92564453125,37.79687500000003L114.00407473958334,42.40625000000003L114.09288541666668,23.96875L114.1090328125,35.49218750000003L114.15401484375,30.88281250000003L114.19092317708333,33.18750000000003L114.66727135416667,28.578125L114.87372734375,33.18750000000003L115.30970703125,30.88281250000003L115.37429661458333,23.96875L115.37891015624999,26.2734375L115.45388020833333,37.79687500000003L115.52885026041668,28.578125L115.78836197916667,33.18750000000003L115.80681614583334,35.49218750000003L115.97290364583333,21.6640625L116.00289166666666,33.18750000000003L116.04556692708333,26.2734375L116.48731354166667,35.49218750000003L116.50922786458334,37.79687500000003L116.62687317708333,30.88281250000003L116.93136692708335,23.96875L117.06169947916666,42.40625000000003L117.10206796875,33.18750000000003L118.49420416666666,33.18750000000003L118.53341927083333,42.40625000000003L118.62453671875001,40.10156250000003L119.10665182291666,30.88281250000003L119.67757760416667,35.49218750000003L120.17930026041667,33.18750000000003L120.42381796875,28.578125L120.64526796874999,35.49218750000003L120.74330572916666,35.49218750000003L120.89555260416665,30.88281250000003L121.20812005208333,42.40625000000003L121.30039088541668,37.79687500000003L121.69138854166667,40.10156250000003L121.72714348958334,28.578125L121.76520520833334,28.578125L121.89669114583334,28.578125L121.96935442708333,28.578125L122.2750015625,30.88281250000003L123.15849479166667,30.88281250000003L123.25653255208333,19.35937500000003L123.42146666666667,23.96875L123.86552005208333,40.10156250000003L123.93126302083333,28.578125L124.18039427083333,26.2734375L124.36839609375001,33.18750000000003L124.72363880208333,33.18750000000003L125.34300677083333,19.35937500000003L125.50563411458333,30.88281250000003L126.02119739583333,37.79687500000003L126.11923515625,30.88281250000003L126.13768932291667,37.79687500000003L126.57828255208334,30.88281250000003L126.84125442708334,26.2734375L126.91276432291666,23.96875L127.14574817708333,30.88281250000003L127.39141927083334,21.6640625L128.13419947916665,26.2734375L128.371796875,28.578125L128.74549375,33.18750000000003L128.76856145833332,28.578125L128.77202161458334,35.49218750000003L128.870059375,33.18750000000003L128.87351953125,21.6640625L129.31757291666668,33.18750000000003L130.01998463541665,37.79687500000003L130.088034375,26.2734375L130.47787864583333,35.49218750000003L130.58975703125,35.49218750000003L130.87579661458335,30.88281250000003L131.37175234375,30.88281250000003L132.10415208333333,30.88281250000003L132.39019166666668,28.578125L132.51360390624998,28.578125L132.70506588541667,35.49218750000003L132.85154583333332,28.578125L133.00955963541668,44.7109375L133.07414921875,35.49218750000003L133.11105755208334,33.18750000000003L133.19294791666667,30.88281250000003L133.631234375,37.79687500000003L133.73388567708332,33.18750000000003L133.76041354166668,42.40625000000003L134.13987734375002,35.49218750000003L134.40976953125,26.2734375L134.48473958333332,35.49218750000003L135.126021875,23.96875L135.20675885416668,35.49218750000003L135.42590208333334,30.88281250000003L135.63351145833334,28.578125L135.86418854166666,33.18750000000003L135.95645937499998,28.578125L136.08333177083333,23.96875L136.343996875,37.79687500000003L136.565446875,28.578125L136.64618385416665,26.2734375L136.70269973958332,21.6640625L137.31630078125,40.10156250000003L137.83647760416667,28.578125L137.95873645833333,35.49218750000003L137.96104322916668,37.79687500000003L138.27245729166665,33.18750000000003L139.05906614583333,33.18750000000003L139.08559401041666,23.96875L139.27244244791666,30.88281250000003L139.3958546875,28.578125L139.46390442708335,37.79687500000003L139.55617526041667,30.88281250000003L139.64267916666665,37.79687500000003L139.73841015625,33.18750000000003L139.82952760416669,30.88281250000003L139.94601953125002,37.79687500000003L140.05674453125,28.578125L140.1351747395833,33.18750000000003L140.62421015625,35.49218750000003L140.64727786458332,30.88281250000003L141.06711015625,28.578125L141.30009401041667,28.578125L141.33700234375,30.88281250000003L141.39928515625,42.40625000000003L141.50308984375002,28.578125L141.728,37.79687500000003L141.76375494791665,26.2734375L141.82719114583335,37.79687500000003L141.86755963541665,26.2734375L141.87909348958334,26.2734375L142.10400364583333,30.88281250000003L142.46270651041667,23.96875L142.95866223958333,26.2734375L143.33812604166667,30.88281250000003L143.40502239583333,37.79687500000003L143.831775,19.35937500000003L143.96787447916665,21.6640625L144.03707760416668,33.18750000000003L144.053225,40.10156250000003L144.07052578125,28.578125L144.08551979166666,30.88281250000003L144.28044192708333,33.18750000000003L144.67374635416667,30.88281250000003L144.8767421875,35.49218750000003L145.06589739583333,26.2734375L145.08204479166668,26.2734375L145.5687734375,30.88281250000003L145.63451640625,30.88281250000003L145.7763828125,30.88281250000003L145.97937864583335,37.79687500000003L146.0947171875,30.88281250000003L146.59874661458335,28.578125L147.361134375,28.578125L147.44533151041665,33.18750000000003L148.15120338541666,42.40625000000003L148.3092171875,26.2734375L149.06583802083335,33.18750000000003L149.06699140625,26.2734375L149.13388776041666,33.18750000000003L149.36456484375,33.18750000000003L149.7348015625,30.88281250000003L150.01276744791667,21.6640625L150.16040078125,23.96875L150.1984625,35.49218750000003L150.42221927083335,33.18750000000003L150.61598802083333,30.88281250000003L150.67942421875,30.88281250000003L150.79014921875,26.2734375L151.31724635416668,23.96875L151.36453515625,35.49218750000003L151.46603307291667,26.2734375L151.72208463541665,26.2734375L151.89855260416667,37.79687500000003L152.14883723958332,26.2734375L152.78896614583334,26.2734375L153.01272291666666,23.96875L153.05770494791668,30.88281250000003L153.28722864583335,21.6640625L153.77165052083333,35.49218750000003L154.07960442708332,30.88281250000003L154.25491901041667,30.88281250000003L154.530578125,33.18750000000003L154.89043437499998,21.6640625L155.08304973958334,19.35937500000003L155.499421875,37.79687500000003L155.81775624999997,23.96875L155.87888567708333,28.578125L156.29064427083335,21.6640625L156.30448489583335,21.6640625L156.58937109375,30.88281250000003L156.71970364583333,21.6640625L156.90539869791667,33.18750000000003L157.00920338541664,30.88281250000003L157.38290026041668,23.96875L157.63664505208334,42.40625000000003L157.68047369791665,17.0546875L157.76351744791668,30.88281250000003L157.80849947916667,28.578125L158.03225625,33.18750000000003L158.04840364583333,28.578125L158.0680111979167,37.79687500000003L158.19257682291666,26.2734375L158.74620182291667,23.96875L158.9653450520833,35.49218750000003L159.09913776041668,33.18750000000003L159.35288255208334,30.88281250000003L159.38633072916667,30.88281250000003L159.91804140624998,26.2734375L160.21446145833332,37.79687500000003L160.24790963541668,26.2734375L160.31826614583332,35.49218750000003L160.66889531249998,26.2734375L160.8626640625,23.96875L161.44973723958333,35.49218750000003L162.84879375,35.49218750000003L162.84994713541667,33.18750000000003L163.01026770833332,26.2734375L163.04486927083335,30.88281250000003L163.09215807291667,42.40625000000003L163.59042057291668,28.578125L163.63886276041666,33.18750000000003L164.01717317708335,26.2734375L164.49813489583335,35.49218750000003L164.51197552083335,23.96875L164.63308098958333,26.2734375L165.01254479166667,37.79687500000003L165.63652630208333,30.88281250000003L165.66420755208333,23.96875L165.7022692708333,30.88281250000003L166.20629869791668,33.18750000000003L166.31471692708334,23.96875L166.70110104166665,19.35937500000003L166.96407291666665,23.96875L167.03096927083334,30.88281250000003L167.29048098958333,19.35937500000003L167.5753671875,35.49218750000003L168.90637395833332,23.96875L169.18664661458334,35.49218750000003L169.4726861979167,35.49218750000003L169.53381562500002,26.2734375L169.65953463541666,28.578125L169.81293489583334,28.578125L170.0251578125,26.2734375L170.17279114583332,23.96875L170.28236276041667,33.18750000000003L170.45306380208334,26.2734375L170.48997213541668,21.6640625L170.56032864583335,37.79687500000003L170.58108958333332,30.88281250000003L170.83022083333333,26.2734375L171.05167083333333,30.88281250000003L171.17162291666665,19.35937500000003L171.68372604166666,19.35937500000003L172.02282135416667,23.96875L172.22120364583336,26.2734375L172.3227015625,33.18750000000003L172.3365421875,26.2734375L172.34576927083333,47.01562500000003L172.4334265625,26.2734375L172.48302213541666,33.18750000000003L172.92130859374998,23.96875L173.08970286458336,28.578125L173.81864244791666,35.49218750000003L174.07584739583334,30.88281250000003L174.72751015625,28.578125L174.74019739583335,23.96875L174.9455,26.2734375L175.0077828125,30.88281250000003L175.17156354166667,30.88281250000003L176.094271875,33.18750000000003L176.371084375,21.6640625L176.70556614583333,23.96875L176.8347453125,35.49218750000003L177.07695625000002,23.96875L177.16,26.2734375L177.45988020833335,23.96875L177.62942786458333,23.96875L178.05502708333333,33.18750000000003L178.07002109375,37.79687500000003L178.16805885416667,33.18750000000003L178.63287317708333,30.88281250000003L178.75513203125,23.96875L179.4840716145833,26.2734375L179.78049166666665,44.7109375L180.16918255208333,21.6640625L180.25107291666666,28.578125L180.34103697916666,33.18750000000003L180.70435338541665,30.88281250000003L180.7101203125,23.96875L180.72742109375,35.49218750000003L181.10803828125,35.49218750000003L181.14494661458332,30.88281250000003L181.37216354166668,21.6640625L181.6374421875,28.578125L181.73317317708333,30.88281250000003L181.7550875,35.49218750000003L181.87388619791668,37.79687500000003L182.19568072916664,30.88281250000003L182.74699895833334,26.2734375L182.77929375,30.88281250000003L182.87848489583334,30.88281250000003L183.31792473958333,28.578125L183.6858546875,21.6640625L183.85309557291666,47.01562500000003L183.90615130208334,30.88281250000003L184.51283203124999,26.2734375L184.55896744791667,37.79687500000003L184.59356901041667,30.88281250000003L184.60510286458333,28.578125L184.69276015625,19.35937500000003L184.73197526041668,30.88281250000003L184.83231979166666,23.96875L184.86807473958334,28.578125L185.40670572916667,19.35937500000003L185.68236484375,30.88281250000003L185.95110364583334,23.96875L186.67888984375,26.2734375L186.72041171875,28.578125L186.83229010416667,21.6640625L187.07450104166665,37.79687500000003L187.07565442708332,23.96875L187.42051666666669,26.2734375L187.71462994791668,21.6640625L187.87725729166667,30.88281250000003L188.21635260416667,26.2734375L188.39628072916668,21.6640625L188.56121484374998,35.49218750000003L188.66040598958332,30.88281250000003L188.88646953125,33.18750000000003L188.91530416666666,30.88281250000003L189.06063072916666,28.578125L189.14136770833335,35.49218750000003L189.41587343749998,28.578125L189.48392317708334,28.578125L189.62117604166667,33.18750000000003L189.76419583333333,28.578125L191.02715286458334,28.578125L191.12865078125,33.18750000000003L191.17363281250002,26.2734375L191.22092161458335,30.88281250000003L191.82183541666666,26.2734375L191.92217994791667,26.2734375L192.26473541666667,28.578125L193.0375036458333,30.88281250000003L193.18167682291667,23.96875L193.98673984375,35.49218750000003L194.10092500000002,28.578125L194.25778541666665,37.79687500000003L194.3984984375,28.578125L194.46539479166668,21.6640625L194.54497838541667,21.6640625L194.54959192708333,35.49218750000003L194.66608385416666,33.18750000000003L194.765275,23.96875L195.43193177083333,33.18750000000003L195.56226432291666,30.88281250000003L195.70989765625,30.88281250000003L195.94403489583334,23.96875L196.00285755208333,40.10156250000003L196.08244114583331,30.88281250000003L196.0870546875,26.2734375L196.69488880208334,30.88281250000003L196.716803125,17.0546875L196.80907395833333,26.2734375L196.94978697916665,30.88281250000003L197.07089244791666,33.18750000000003L197.2773484375,26.2734375L197.29349583333334,23.96875L197.33501770833334,26.2734375L197.38230651041667,30.88281250000003L197.49072473958333,30.88281250000003L197.547240625,30.88281250000003L197.65911901041667,26.2734375L197.75485,19.35937500000003L197.85519453125,21.6640625L197.87595546875,28.578125L198.0316625,23.96875L198.98551223958333,33.18750000000003L199.26578489583335,23.96875L200.176959375,26.2734375L200.25423619791667,40.10156250000003L200.32459270833334,28.578125L200.73981145833332,35.49218750000003L201.28997630208332,26.2734375L201.45491041666668,19.35937500000003L202.06043776041668,26.2734375L202.15040182291668,33.18750000000003L202.516025,21.6640625L202.67288541666665,26.2734375L202.6901861979167,26.2734375L203.35222942708333,28.578125L203.44796041666666,28.578125L203.747840625,26.2734375L203.94852968749998,28.578125L204.03272682291666,35.49218750000003L204.20112109375,30.88281250000003L204.22303541666668,26.2734375L204.29915885416668,33.18750000000003L204.48485390625,30.88281250000003L204.58981197916668,30.88281250000003L204.64517447916668,21.6640625L204.86777786458333,28.578125L205.08230755208334,28.578125L205.21840703125002,33.18750000000003L205.29683723958334,33.18750000000003L205.34989296875,23.96875L206.1076671875,28.578125L206.2875953125,28.578125L206.43753541666666,26.2734375L206.62092369791668,30.88281250000003L206.92657083333336,35.49218750000003L207.05805677083336,19.35937500000003L207.35447682291667,28.578125L207.84235885416666,28.578125L207.900028125,28.578125L208.09841041666667,19.35937500000003L208.14108567708334,30.88281250000003L208.42597187500002,26.2734375L208.7097046875,28.578125L208.94614869791667,30.88281250000003L208.97844348958333,26.2734375L209.18259270833335,26.2734375L209.85847656250002,35.49218750000003L209.88500442708335,33.18750000000003L210.0799265625,30.88281250000003L210.08107994791666,30.88281250000003L210.15374322916668,23.96875L210.2483208333333,33.18750000000003L210.39710755208336,30.88281250000003L210.46285052083334,28.578125L210.58856953125002,44.7109375L210.67045989583332,21.6640625L210.82616692708334,33.18750000000003L211.21716458333333,33.18750000000003L211.41093333333333,28.578125L212.17216770833332,35.49218750000003L212.30711380208334,33.18750000000003L212.94032239583333,37.79687500000003L213.16753932291667,26.2734375L213.21367473958333,23.96875L213.35554114583334,28.578125L213.91031953125,28.578125L214.06487317708334,26.2734375L214.29901041666668,21.6640625L214.52622734375,21.6640625L214.8733963541667,26.2734375L214.89992421875002,33.18750000000003L215.12137421875002,33.18750000000003L215.5331328125,28.578125L215.62194348958334,21.6640625L215.85492734374998,33.18750000000003L215.95296510416665,26.2734375L216.08099088541667,23.96875L216.13981354166668,33.18750000000003L216.425853125,28.578125L216.87913359375,33.18750000000003L217.04406770833333,19.35937500000003L217.28512526041666,33.18750000000003L217.46966692708332,37.79687500000003L217.66689583333334,33.18750000000003L217.83529010416666,23.96875L217.84797734375,28.578125L217.9967640625,28.578125L218.01983177083335,28.578125L218.36238723958334,26.2734375L218.62881927083333,19.35937500000003L218.92985286458335,26.2734375L218.99674921875,28.578125L219.10055390624998,19.35937500000003L219.360065625,28.578125L219.71415494791668,23.96875L220.54113229166666,21.6640625L221.01171354166667,21.6640625L221.05669557291665,33.18750000000003L221.06822942708334,21.6640625L221.71643203125,17.0546875L221.9298083333333,26.2734375L222.571090625,17.0546875L222.71065026041668,28.578125L222.80407447916667,28.578125L222.82137526041666,17.0546875L222.94363411458332,28.578125L223.1454765625,21.6640625L223.24466770833334,28.578125L223.46265755208336,26.2734375L224.23427239583333,33.18750000000003L224.50301119791666,30.88281250000003L224.8201921875,19.35937500000003L225.03702864583335,30.88281250000003L225.10623177083332,19.35937500000003L225.22503046875,28.578125L225.3461359375,30.88281250000003L225.54567161458334,23.96875L226.15696588541667,35.49218750000003L226.37380234375,33.18750000000003L226.38994973958336,17.0546875L226.40725052083334,23.96875L226.4879875,33.18750000000003L226.73596536458334,35.49218750000003L227.31496484374998,33.18750000000003L228.00699609375002,28.578125L228.11310755208333,23.96875L228.25843411458334,33.18750000000003L228.5917625,26.2734375L229.13270026041667,35.49218750000003L229.13962057291664,26.2734375L229.17883567708333,30.88281250000003L229.32877578125,33.18750000000003L229.71631328125,42.40625000000003L229.74976145833332,30.88281250000003L230.05194843750002,26.2734375L230.10846432291666,30.88281250000003L230.308,23.96875L230.63786822916666,35.49218750000003L231.04039973958334,21.6640625L231.07500130208334,26.2734375L231.37372812499999,28.578125L231.88698463541667,28.578125L231.89159817708335,30.88281250000003L231.955034375,37.79687500000003L232.13842265625,17.0546875L232.17302421875002,21.6640625L232.29297630208333,26.2734375L232.36448619791668,23.96875L232.56402187499998,37.79687500000003L233.0841986979167,33.18750000000003L233.56285364583334,30.88281250000003L233.94693098958334,28.578125L234.0092138020833,21.6640625L234.07265,30.88281250000003L234.07841692708334,26.2734375L234.39559791666667,17.0546875L234.44980703124997,23.96875L234.45211380208335,35.49218750000003L234.69778489583334,30.88281250000003L234.8269640625,23.96875L235.07148177083334,26.2734375L235.19950755208333,40.10156250000003L235.21104140625,26.2734375L235.46247942708334,19.35937500000003L236.14989713541667,23.96875L236.16143098958335,19.35937500000003L236.24216796874998,23.96875L236.51090677083334,35.49218750000003L237.15334244791666,30.88281250000003L237.60316276041667,23.96875L237.86498125,23.96875L237.87997526041667,23.96875L238.12218619791668,28.578125L238.2167638020833,28.578125L238.39092499999998,21.6640625L238.42321979166664,28.578125L238.66427734375,30.88281250000003L238.78999635416665,42.40625000000003L238.8545859375,28.578125L238.91225520833333,28.578125L238.92494244791666,21.6640625L239.4428125,28.578125L239.52816302083335,21.6640625L239.83842369791668,35.49218750000003L239.8914794270833,30.88281250000003L239.98490364583336,23.96875L240.33783958333333,23.96875L241.32398411458334,26.2734375L241.34820520833333,23.96875L241.35627890625,28.578125L241.38280677083335,28.578125L241.4289421875,21.6640625L241.72420885416668,26.2734375L241.892603125,30.88281250000003L242.1302005208333,28.578125L242.13366067708333,35.49218750000003L242.46698906249998,23.96875L242.60078177083335,28.578125L242.72073385416667,21.6640625L244.03905338541665,23.96875L244.76568619791666,26.2734375L246.01595598958335,30.88281250000003L246.05517109375,26.2734375L246.25470677083334,26.2734375L246.515371875,30.88281250000003L246.55689375,23.96875L247.2558453125,30.88281250000003L247.36195677083333,26.2734375L247.54073151041666,19.35937500000003L247.92826901041667,23.96875L248.30311927083332,19.35937500000003L248.32042005208334,28.578125L248.43921874999998,19.35937500000003L248.56955130208334,23.96875L248.69181015624997,23.96875L249.02629192708332,23.96875L249.70332916666666,26.2734375L249.96860781249998,19.35937500000003L250.02627708333333,28.578125L250.29040234375,23.96875L250.43226875,19.35937500000003L250.54299375,33.18750000000003L251.12199322916666,26.2734375L251.33998307291668,21.6640625L251.66985130208334,26.2734375L251.91090885416665,28.578125L252.41955182291667,23.96875L252.42416536458333,28.578125L252.89013307291668,21.6640625L252.92242786458334,30.88281250000003L253.3549473958333,37.79687500000003L253.35840755208335,26.2734375L253.5002739583333,28.578125L253.63868020833334,21.6640625L253.74363828125,26.2734375" style="fill: none;" fill="none"></path></g></g></g></g></g></g><g transform="translate(53, 177)" clip-path="url(#clip_1)"><clipPath id="clip_1"><rect width="276" height="23"></rect></clipPath><g><g><line x1="0" y1="0" x2="0" y2="5" style="visibility: inherit;" fill="rgb(0, 0, 0)" stroke="rgb(204, 204, 204)" stroke-width="1px"></line><line x1="23.067708333333332" y1="0" x2="23.067708333333332" y2="5" style="visibility: inherit;" fill="rgb(0, 0, 0)" stroke="rgb(204, 204, 204)" stroke-width="1px"></line><line x1="46.135416666666664" y1="0" x2="46.135416666666664" y2="5" style="visibility: inherit;" fill="rgb(0, 0, 0)" stroke="rgb(204, 204, 204)" stroke-width="1px"></line><line x1="69.203125" y1="0" x2="69.203125" y2="5" style="visibility: inherit;" fill="rgb(0, 0, 0)" stroke="rgb(204, 204, 204)" stroke-width="1px"></line><line x1="92.27083333333333" y1="0" x2="92.27083333333333" y2="5" style="visibility: inherit;" fill="rgb(0, 0, 0)" stroke="rgb(204, 204, 204)" stroke-width="1px"></line><line x1="115.33854166666667" y1="0" x2="115.33854166666667" y2="5" style="visibility: inherit;" fill="rgb(0, 0, 0)" stroke="rgb(204, 204, 204)" stroke-width="1px"></line><line x1="138.40625" y1="0" x2="138.40625" y2="5" style="visibility: inherit;" fill="rgb(0, 0, 0)" stroke="rgb(204, 204, 204)" stroke-width="1px"></line><line x1="161.47395833333334" y1="0" x2="161.47395833333334" y2="5" style="visibility: inherit;" fill="rgb(0, 0, 0)" stroke="rgb(204, 204, 204)" stroke-width="1px"></line><line x1="184.54166666666666" y1="0" x2="184.54166666666666" y2="5" style="visibility: inherit;" fill="rgb(0, 0, 0)" stroke="rgb(204, 204, 204)" stroke-width="1px"></line><line x1="207.609375" y1="0" x2="207.609375" y2="5" style="visibility: inherit;" fill="rgb(0, 0, 0)" stroke="rgb(204, 204, 204)" stroke-width="1px"></line><line x1="230.67708333333334" y1="0" x2="230.67708333333334" y2="5" style="visibility: inherit;" fill="rgb(0, 0, 0)" stroke="rgb(204, 204, 204)" stroke-width="1px"></line><line x1="253.74479166666666" y1="0" x2="253.74479166666666" y2="5" style="visibility: inherit;" fill="rgb(0, 0, 0)" stroke="rgb(204, 204, 204)" stroke-width="1px"></line><line x1="276.8125" y1="0" x2="276.8125" y2="5" style="visibility: inherit;" fill="rgb(0, 0, 0)" stroke="rgb(204, 204, 204)" stroke-width="1px"></line></g><g transform="translate(0, 8)"><text x="0" y="0" dx="0em" dy="0.95em" style="text-anchor: middle; visibility: hidden; font-family: &quot;Helvetica Neue&quot;, sans-serif; font-size: 12px; font-weight: 200;" fill="rgb(50, 49, 63)" stroke="none" stroke-width="1px">-20k</text><text x="23.067708333333332" y="0" dx="0em" dy="0.95em" style="text-anchor: middle; visibility: inherit; font-family: &quot;Helvetica Neue&quot;, sans-serif; font-size: 12px; font-weight: 200;" fill="rgb(50, 49, 63)" stroke="none" stroke-width="1px">0</text><text x="46.135416666666664" y="0" dx="0em" dy="0.95em" style="text-anchor: middle; visibility: hidden; font-family: &quot;Helvetica Neue&quot;, sans-serif; font-size: 12px; font-weight: 200;" fill="rgb(50, 49, 63)" stroke="none" stroke-width="1px">20k</text><text x="69.203125" y="0" dx="0em" dy="0.95em" style="text-anchor: middle; visibility: inherit; font-family: &quot;Helvetica Neue&quot;, sans-serif; font-size: 12px; font-weight: 200;" fill="rgb(50, 49, 63)" stroke="none" stroke-width="1px">40k</text><text x="92.27083333333333" y="0" dx="0em" dy="0.95em" style="text-anchor: middle; visibility: hidden; font-family: &quot;Helvetica Neue&quot;, sans-serif; font-size: 12px; font-weight: 200;" fill="rgb(50, 49, 63)" stroke="none" stroke-width="1px">60k</text><text x="115.33854166666667" y="0" dx="0em" dy="0.95em" style="text-anchor: middle; visibility: inherit; font-family: &quot;Helvetica Neue&quot;, sans-serif; font-size: 12px; font-weight: 200;" fill="rgb(50, 49, 63)" stroke="none" stroke-width="1px">80k</text><text x="138.40625" y="0" dx="0em" dy="0.95em" style="text-anchor: middle; visibility: hidden; font-family: &quot;Helvetica Neue&quot;, sans-serif; font-size: 12px; font-weight: 200;" fill="rgb(50, 49, 63)" stroke="none" stroke-width="1px">100k</text><text x="161.47395833333334" y="0" dx="0em" dy="0.95em" style="text-anchor: middle; visibility: inherit; font-family: &quot;Helvetica Neue&quot;, sans-serif; font-size: 12px; font-weight: 200;" fill="rgb(50, 49, 63)" stroke="none" stroke-width="1px">120k</text><text x="184.54166666666666" y="0" dx="0em" dy="0.95em" style="text-anchor: middle; visibility: hidden; font-family: &quot;Helvetica Neue&quot;, sans-serif; font-size: 12px; font-weight: 200;" fill="rgb(50, 49, 63)" stroke="none" stroke-width="1px">140k</text><text x="207.609375" y="0" dx="0em" dy="0.95em" style="text-anchor: middle; visibility: inherit; font-family: &quot;Helvetica Neue&quot;, sans-serif; font-size: 12px; font-weight: 200;" fill="rgb(50, 49, 63)" stroke="none" stroke-width="1px">160k</text><text x="230.67708333333334" y="0" dx="0em" dy="0.95em" style="text-anchor: middle; visibility: hidden; font-family: &quot;Helvetica Neue&quot;, sans-serif; font-size: 12px; font-weight: 200;" fill="rgb(50, 49, 63)" stroke="none" stroke-width="1px">180k</text><text x="253.74479166666666" y="0" dx="0em" dy="0.95em" style="text-anchor: middle; visibility: inherit; font-family: &quot;Helvetica Neue&quot;, sans-serif; font-size: 12px; font-weight: 200;" fill="rgb(50, 49, 63)" stroke="none" stroke-width="1px">200k</text><text x="276.8125" y="0" dx="0em" dy="0.95em" style="text-anchor: middle; visibility: hidden; font-family: &quot;Helvetica Neue&quot;, sans-serif; font-size: 12px; font-weight: 200;" fill="rgb(50, 49, 63)" stroke="none" stroke-width="1px">220k</text></g><line x1="0" y1="0" x2="276.8125" y2="0" fill="rgb(0, 0, 0)" stroke="rgb(204, 204, 204)" stroke-width="1px"></line></g></g></g></g></svg>