<svg viewBox="0 0 330 200" xmlns="http://www.w3.org/2000/svg"><g><g><g><g><g><line x1="63.984375" y1="177" x2="58.984375" y2="177" style="visibility: inherit;" fill="rgb(0, 0, 0)" stroke="rgb(204, 204, 204)" stroke-width="1px"></line><line x1="63.984375" y1="159.3" x2="58.984375" y2="159.3" style="visibility: inherit;" fill="rgb(0, 0, 0)" stroke="rgb(204, 204, 204)" stroke-width="1px"></line><line x1="63.984375" y1="141.6" x2="58.984375" y2="141.6" style="visibility: inherit;" fill="rgb(0, 0, 0)" stroke="rgb(204, 204, 204)" stroke-width="1px"></line><line x1="63.984375" y1="123.9" x2="58.984375" y2="123.9" style="visibility: inherit;" fill="rgb(0, 0, 0)" stroke="rgb(204, 204, 204)" stroke-width="1px"></line><line x1="63.984375" y1="106.2" x2="58.984375" y2="106.2" style="visibility: inherit;" fill="rgb(0, 0, 0)" stroke="rgb(204, 204, 204)" stroke-width="1px"></line><line x1="63.984375" y1="88.49999999999999" x2="58.984375" y2="88.49999999999999" style="visibility: inherit;" fill="rgb(0, 0, 0)" stroke="rgb(204, 204, 204)" stroke-width="1px"></line><line x1="63.984375" y1="70.79999999999998" x2="58.984375" y2="70.79999999999998" style="visibility: inherit;" fill="rgb(0, 0, 0)" stroke="rgb(204, 204, 204)" stroke-width="1px"></line><line x1="63.984375" y1="53.10000000000001" x2="58.984375" y2="53.10000000000001" style="visibility: inherit;" fill="rgb(0, 0, 0)" stroke="rgb(204, 204, 204)" stroke-width="1px"></line><line x1="63.984375" y1="35.400000000000006" x2="58.984375" y2="35.400000000000006" style="visibility: inherit;" fill="rgb(0, 0, 0)" stroke="rgb(204, 204, 204)" stroke-width="1px"></line><line x1="63.984375" y1="17.69999999999999" x2="58.984375" y2="17.69999999999999" style="visibility: inherit;" fill="rgb(0, 0, 0)" stroke="rgb(204, 204, 204)" stroke-width="1px"></line><line x1="63.984375" y1="0" x2="58.984375" y2="0" style="visibility: inherit;" fill="rgb(0, 0, 0)" stroke="rgb(204, 204, 204)" stroke-width="1px"></line></g><g transform="translate(53.984375, 0)"><text x="0" y="177" dx="0em" dy="0.3em" style="text-anchor: end; visibility: hidden; font-family: &quot;Helvetica Neue&quot;, sans-serif; font-size: 12px; font-weight: 200;" fill="rgb(50, 49, 63)" stroke="none" stroke-width="1px">-5e-3</text><text x="0" y="159.3" dx="0em" dy="0.3em" style="text-anchor: end; visibility: inherit; font-family: &quot;Helvetica Neue&quot;, sans-serif; font-size: 12px; font-weight: 200;" fill="rgb(50, 49, 63)" stroke="none" stroke-width="1px">0</text><text x="0" y="141.6" dx="0em" dy="0.3em" style="text-anchor: end; visibility: hidden; font-family: &quot;Helvetica Neue&quot;, sans-serif; font-size: 12px; font-weight: 200;" fill="rgb(50, 49, 63)" stroke="none" stroke-width="1px">5e-3</text><text x="0" y="123.9" dx="0em" dy="0.3em" style="text-anchor: end; visibility: inherit; font-family: &quot;Helvetica Neue&quot;, sans-serif; font-size: 12px; font-weight: 200;" fill="rgb(50, 49, 63)" stroke="none" stroke-width="1px">0.01</text><text x="0" y="106.2" dx="0em" dy="0.3em" style="text-anchor: end; visibility: hidden; font-family: &quot;Helvetica Neue&quot;, sans-serif; font-size: 12px; font-weight: 200;" fill="rgb(50, 49, 63)" stroke="none" stroke-width="1px">0.015</text><text x="0" y="88.49999999999999" dx="0em" dy="0.3em" style="text-anchor: end; visibility: inherit; font-family: &quot;Helvetica Neue&quot;, sans-serif; font-size: 12px; font-weight: 200;" fill="rgb(50, 49, 63)" stroke="none" stroke-width="1px">0.02</text><text x="0" y="70.79999999999998" dx="0em" dy="0.3em" style="text-anchor: end; visibility: hidden; font-family: &quot;Helvetica Neue&quot;, sans-serif; font-size: 12px; font-weight: 200;" fill="rgb(50, 49, 63)" stroke="none" stroke-width="1px">0.025</text><text x="0" y="53.10000000000001" dx="0em" dy="0.3em" style="text-anchor: end; visibility: inherit; font-family: &quot;Helvetica Neue&quot;, sans-serif; font-size: 12px; font-weight: 200;" fill="rgb(50, 49, 63)" stroke="none" stroke-width="1px">0.03</text><text x="0" y="35.400000000000006" dx="0em" dy="0.3em" style="text-anchor: end; visibility: hidden; font-family: &quot;Helvetica Neue&quot;, sans-serif; font-size: 12px; font-weight: 200;" fill="rgb(50, 49, 63)" stroke="none" stroke-width="1px">0.035</text><text x="0" y="17.69999999999999" dx="0em" dy="0.3em" style="text-anchor: end; visibility: inherit; font-family: &quot;Helvetica Neue&quot;, sans-serif; font-size: 12px; font-weight: 200;" fill="rgb(50, 49, 63)" stroke="none" stroke-width="1px">0.04</text><text x="0" y="0" dx="0em" dy="0.3em" style="text-anchor: end; visibility: hidden; font-family: &quot;Helvetica Neue&quot;, sans-serif; font-size: 12px; font-weight: 200;" fill="rgb(50, 49, 63)" stroke="none" stroke-width="1px">0.045</text></g><line x1="63.984375" y1="0" x2="63.984375" y2="177" fill="rgb(0, 0, 0)" stroke="rgb(204, 204, 204)" stroke-width="1px"></line></g></g><g transform="translate(63, 0)" clip-path="url(#clip_0)"><clipPath id="clip_0"><rect width="266" height="177"></rect></clipPath><g><g><g><line x1="0" y1="0" x2="0" y2="177" fill="rgb(0, 0, 0)" stroke="rgb(60, 60, 60)" stroke-width="1px" opacity="0.25"></line><line x1="22.16796875" y1="0" x2="22.16796875" y2="177" fill="rgb(0, 0, 0)" stroke="rgb(60, 60, 60)" stroke-width="1px" opacity="0.25"></line><line x1="44.3359375" y1="0" x2="44.3359375" y2="177" fill="rgb(0, 0, 0)" stroke="rgb(60, 60, 60)" stroke-width="1px" opacity="0.25"></line><line x1="66.50390625" y1="0" x2="66.50390625" y2="177" fill="rgb(0, 0, 0)" stroke="rgb(60, 60, 60)" stroke-width="1px" opacity="0.25"></line><line x1="88.671875" y1="0" x2="88.671875" y2="177" fill="rgb(0, 0, 0)" stroke="rgb(60, 60, 60)" stroke-width="1px" opacity="0.25"></line><line x1="110.83984375" y1="0" x2="110.83984375" y2="177" fill="rgb(0, 0, 0)" stroke="rgb(60, 60, 60)" stroke-width="1px" opacity="0.25"></line><line x1="133.0078125" y1="0" x2="133.0078125" y2="177" fill="rgb(0, 0, 0)" stroke="rgb(60, 60, 60)" stroke-width="1px" opacity="0.25"></line><line x1="155.17578125" y1="0" x2="155.17578125" y2="177" fill="rgb(0, 0, 0)" stroke="rgb(60, 60, 60)" stroke-width="1px" opacity="0.25"></line><line x1="177.34375" y1="0" x2="177.34375" y2="177" fill="rgb(0, 0, 0)" stroke="rgb(60, 60, 60)" stroke-width="1px" opacity="0.25"></line><line x1="199.51171875" y1="0" x2="199.51171875" y2="177" fill="rgb(0, 0, 0)" stroke="rgb(60, 60, 60)" stroke-width="1px" opacity="0.25"></line><line x1="221.6796875" y1="0" x2="221.6796875" y2="177" fill="rgb(0, 0, 0)" stroke="rgb(60, 60, 60)" stroke-width="1px" opacity="0.25"></line><line x1="243.84765625" y1="0" x2="243.84765625" y2="177" fill="rgb(0, 0, 0)" stroke="rgb(60, 60, 60)" stroke-width="1px" opacity="0.25"></line><line x1="266.015625" y1="0" x2="266.015625" y2="177" fill="rgb(0, 0, 0)" stroke="rgb(60, 60, 60)" stroke-width="1px" opacity="0.25"></line></g><g><line x1="0" y1="177" x2="266.015625" y2="177" fill="rgb(0, 0, 0)" stroke="rgb(60, 60, 60)" stroke-width="1px" opacity="0.25"></line><line x1="0" y1="159.3" x2="266.015625" y2="159.3" fill="rgb(0, 0, 0)" stroke="rgb(60, 60, 60)" stroke-width="1px" opacity="0.25"></line><line x1="0" y1="141.6" x2="266.015625" y2="141.6" fill="rgb(0, 0, 0)" stroke="rgb(60, 60, 60)" stroke-width="1px" opacity="0.25"></line><line x1="0" y1="123.9" x2="266.015625" y2="123.9" fill="rgb(0, 0, 0)" stroke="rgb(60, 60, 60)" stroke-width="1px" opacity="0.25"></line><line x1="0" y1="106.2" x2="266.015625" y2="106.2" fill="rgb(0, 0, 0)" stroke="rgb(60, 60, 60)" stroke-width="1px" opacity="0.25"></line><line x1="0" y1="88.49999999999999" x2="266.015625" y2="88.49999999999999" fill="rgb(0, 0, 0)" stroke="rgb(60, 60, 60)" stroke-width="1px" opacity="0.25"></line><line x1="0" y1="70.79999999999998" x2="266.015625" y2="70.79999999999998" fill="rgb(0, 0, 0)" stroke="rgb(60, 60, 60)" stroke-width="1px" opacity="0.25"></line><line x1="0" y1="53.10000000000001" x2="266.015625" y2="53.10000000000001" fill="rgb(0, 0, 0)" stroke="rgb(60, 60, 60)" stroke-width="1px" opacity="0.25"></line><line x1="0" y1="35.400000000000006" x2="266.015625" y2="35.400000000000006" fill="rgb(0, 0, 0)" stroke="rgb(60, 60, 60)" stroke-width="1px" opacity="0.25"></line><line x1="0" y1="17.69999999999999" x2="266.015625" y2="17.69999999999999" fill="rgb(0, 0, 0)" stroke="rgb(60, 60, 60)" stroke-width="1px" opacity="0.25"></line><line x1="0" y1="0" x2="266.015625" y2="0" fill="rgb(0, 0, 0)" stroke="rgb(60, 60, 60)" stroke-width="1px" opacity="0.25"></line></g></g></g><g><g><line x1="0" y1="159.3" x2="266.015625" y2="159.3" fill="rgb(0, 0, 0)" stroke="rgb(153, 153, 153)" stroke-width="1.5px"></line></g></g><g><g><line x1="22.16796875" y1="0" x2="22.16796875" y2="177" fill="rgb(0, 0, 0)" stroke="rgb(153, 153, 153)" stroke-width="1.5px"></line></g></g><g><g><g><g><g><path stroke="rgb(255, 112, 67)" stroke-width="2px" d="M29.6064306640625,-6.44193762740656L29.764931640625,0.4383155259004923L29.889072265625,1.5487127058180192L30.0985595703125,6.240301407000459L30.43662109375,12.719419736718947L30.4399462890625,13.240805948500252L30.811259765625,16.426683001089117L30.850053710937498,17.253656407865606L31.108310546875,21.41115178044663L31.23466796875,25.558784720847882L31.2801123046875,27.943030041220055L31.587138671875,24.459329452344804L31.59822265625,23.762497996224965L32.008330078125,24.34913575466686L32.0715087890625,30.382985800611834L32.43173828125,38.37126873858088L32.66228515625,35.97861315683761L32.757607421875,35.1010579530965L32.917216796875,35.88517517951567L33.694204101562505,42.72718367759941L33.7828759765625,48.61891897311591L33.830537109375,47.762529265825606L34.2550537109375,54.325726770725794L34.322666015625,52.80572320244727L34.382519531250004,53.08704725159416L34.95001953125,52.8237549749208L34.987705078125,52.92940883679343L35.4343896484375,55.15170493151639L35.439931640625005,54.443001843249164L35.65052734375,59.277411758157825L35.790185546875,64.6316209651549L36.440815429687504,74.20010490641111L36.614833984375,73.35360056832499L36.6447607421875,70.50450299307744L37.264355468750004,72.45676195219183L38.011416015625,76.79234326359645L38.42595703125,78.62077632949958L38.5489892578125,80.84918625418071L38.6531787109375,85.20574612893894L39.318217773437496,88.05949196921726L39.64076171875,87.41219801251255L40.030917968749996,86.14390759315587L40.8522412109375,83.6029362460762L41.083896484375,87.13322246377408L41.118256835937494,82.64567191603624L41.3621044921875,89.2708050781658L41.3864892578125,93.74034868742052L41.6126025390625,94.45612306752814L41.6281201171875,94.37700277900107L42.6190283203125,92.10580749234799L43.816098632812505,88.87806268406655L43.936914062499994,93.70961896820512L44.0377783203125,98.47720562633064L44.3303955078125,98.0276499355804L44.3946826171875,101.0282756796462L44.404658203124995,98.40544621235028L44.606386718749995,100.61193750969109L44.6939501953125,98.73684930426798L44.8236328125,97.29962122632813L44.9333642578125,91.54007224675269L44.976591796875,99.24274651638419L45.1993798828125,103.11043990332931L45.202705078125,103.14218379783064L45.283618164062496,93.2743111874308L45.533007812499996,97.63395249966656L45.603945312499995,94.60026242031977L45.701484375,99.61929802831604L45.7979150390625,102.71162751279232L46.3842578125,104.34515955693696L46.8242919921875,103.67030868141158L46.918505859375,103.96514156108083L46.949541015624995,104.57205095943797L47.814091796875,108.28770916466111L47.825175781249996,109.64699628802653L47.978134765625,112.11990450651953L48.0612646484375,115.79882814753955L48.1344189453125,114.56710853856148L48.25966796875,109.3240085773548L48.403759765625,110.00853062736276L48.4381201171875,105.54520880441237L48.9324658203125,108.46550714498979L49.082099609375,107.59576431945693L49.08431640625,108.21045404515107L49.126435546875,107.71701193476581L49.4578466796875,105.21364466443576L49.5753369140625,106.81879571852038L49.804775390625004,111.77419407353968L50.1583544921875,111.18692194453578L50.311313476562496,112.90246322889149L50.777949218749995,114.68002062492978L50.8167431640625,108.36357968541034L50.8987646484375,112.94574979807166L51.322172851562506,110.10178092309968L51.8697216796875,109.17525591486176L51.870830078125,107.74205382009436L52.265419921875,107.91544920527988L52.654467773437496,109.24284326448472L52.7630908203125,110.57503619858284L52.801884765625005,109.3848235116521L53.0091552734375,106.58556842661616L53.110019531249996,111.21547457013557L53.688603515625005,113.3806861587407L53.8049853515625,116.69676370430241L54.278271484375004,114.50824540679605L54.30708984375,118.07118849173159L54.380244140624995,118.4632896567283L54.534311523437495,116.38209782271969L54.6030322265625,114.43419451224439L54.8335791015625,115.36464054082413L54.9887548828125,118.25180971708643L55.2303857421875,112.40583647362439L55.4254638671875,110.02374075664311L55.4542822265625,110.5780536488487L55.612783203125005,111.85980577473602L55.7823681640625,111.97163287195421L55.940869140625,113.96655049826418L56.09826171875,114.2659196979148L56.202451171875,113.95801282652275L56.217968750000004,118.18409184770618L56.978330078125,114.29530196849603L57.0193408203125,116.47508881189883L57.5037109375,111.37451877831495L57.56578125,116.86243768536494L57.8661572265625,118.67497608782915L58.1188720703125,118.54352583540717L58.237470703125005,117.7198148906424L58.3649365234375,120.41337641538348L58.481318359374995,122.92090184337596L58.627626953125,125.67103447494924L58.636494140625004,126.05810364888917L58.782802734375004,122.99584754411467L58.9457373046875,121.08079296829752L59.1607666015625,116.73985102881463L59.1918017578125,118.3554582405655L59.562006835937495,116.61936434379626L59.575307617187505,120.47613998485451L59.6152099609375,119.42694139738587L59.6750634765625,121.61855354881112L59.71607421875,117.97963926300898L59.7570849609375,114.17195917252L59.89341796875,118.09021288921414L60.254755859375,119.01499994081244L60.4354248046875,122.54081642736188L60.517446289062505,120.4331944439363L61.3310107421875,121.30053411862562L61.354287109375,123.77771382714099L61.497270507812495,122.58879056057205L61.8164892578125,121.55222216654343L62.0182177734375,121.54158897464586L62.111323242187495,122.97863934913345L62.7674951171875,123.52928785788455L62.800747070312504,123.88993838284874L62.920454101562505,123.80366175058164L63.012451171875,124.5733626939814L63.402607421875004,125.58558714556459L63.7207177734375,122.57513592313387L64.02552734375,126.78572347683107L64.14966796875,128.0434226609611L64.7914306640625,129.7104680880811L65.08515625,127.13614805727637L65.2181640625,127.52218371265792L65.3744482421875,125.51450620343483L65.72359374999999,125.21194505214808L66.173603515625,126.47254495453905L66.4030419921875,119.31504713047784L66.52607421875,123.74230711459663L66.83199218749999,121.43001149743525L67.05810546875,123.14325793593959L67.2432080078125,123.1058896211376L67.301953125,123.71655831620635L67.3828662109375,123.4058485632273L67.65664062500001,122.49276092500284L67.9126806640625,121.0462640512037L68.2097314453125,123.55950163650795L68.86922851562501,121.74217875777651L69.219482421875,121.68731453972441L69.23943359375,125.41666973029007L69.472197265625,122.37857284304158L70.403251953125,123.72103125516568L70.5373681640625,125.85745225616691L70.6171728515625,124.09705300163266L70.647099609375,130.4045139356317L70.651533203125,128.50548257671966L70.7213623046875,122.2016129743646L70.92974121093751,123.87195937315168L71.0184130859375,125.720805169222L71.1591796875,122.44940322224929L71.16693847656249,127.43941632604381L71.21570800781251,124.4183930331217L71.27445312500001,122.16708671860377L71.841953125,126.14370210550713L72.00599609375,123.96846751888089L72.45822265624999,123.56320409160548L72.60785644531249,121.52912834812221L72.775224609375,117.72899412947307L73.506767578125,121.16706515274888L73.524501953125,125.64921378417282L73.6120654296875,125.9160108388869L74.59632324218751,125.54597155996609L74.969853515625,126.4407641035226L75.0441162109375,126.1805920518581L75.08734375,124.74150854272509L75.24030273437499,122.05850930883207L75.3123486328125,117.95108038678L75.337841796875,120.33756145056623L75.45533203125001,119.03074742654883L75.5717138671875,119.03817178457929L75.6227001953125,122.54195664435596L75.94967773437499,126.2531454969047L76.7809765625,128.14010193965424L76.86854003906251,132.51506841538304L77.0081982421875,134.32254554887388L77.594541015625,131.2097035483108L77.6499609375,133.03705853778638L77.77077636718751,130.89248693143438L77.8040283203125,131.9843750341541L78.4956689453125,130.96674979709428L78.6730126953125,132.6066249306967L78.844814453125,130.4717115888578L78.94789550781249,128.9410221412529L79.58079101562501,133.11364231510456L79.80579589843751,134.18013194622694L80.12833984375001,136.76486295981465L80.1959521484375,134.4949147863582L80.36997070312499,132.80970375438903L80.560615234375,133.96234908864125L80.808896484375,131.135352913232L80.8454736328125,129.37430026572426L81.01505859375,128.52480517412113L81.0316845703125,129.38622855713896L81.43181640625,127.85701525223811L81.695615234375,127.91005237974261L81.7078076171875,128.9317397134157L81.86852539062501,132.1843241305144L81.917294921875,131.5559947890634L82.1578173828125,127.51986575410334L82.7873876953125,130.57860239214043L82.9159619140625,130.70485618154015L83.0600537109375,131.26600706064585L83.109931640625,131.9424135755532L83.4612939453125,132.11937343573766L83.7317431640625,129.98641265598653L83.7406103515625,132.11241477127504L83.92017089843749,130.8093776544668L83.97891601562499,133.4121336980604L84.61181152343751,135.88250095182315L84.8002392578125,135.61255055134689L84.81575683593749,136.32329198816532L84.9121875,131.9037041935272L85.1105908203125,135.2494393039016L85.14716796875,132.90174353976656L85.6847412109375,128.803839722631L85.88314453125001,134.02458711570958L86.9427734375,131.90477363351857L87.07134765625,128.6556425975792L87.2520166015625,127.01110972804025L87.281943359375,129.09151156048296L87.3007861328125,128.9182327881474L87.85609375,131.28621153697483L87.9081884765625,132.64045649984547L88.0423046875,131.88561174672287L88.2728515625,134.3256271211889L88.30610351562501,132.79692805401004L88.8702783203125,130.3446197318525L88.87692871093749,130.8494543330366L88.9013134765625,130.4520512188372L89.0010693359375,130.11311379581076L89.1983642578125,133.07487600794065L90.0074951171875,133.66478945806998L90.08619140625,133.50662692603692L90.26575195312499,134.65899390379923L90.533984375,129.7056550836583L91.04273925781251,132.66783417096855L91.1314111328125,130.66903616357519L91.46060546875,132.40261141922278L91.4949658203125,133.2848636227322L91.857412109375,132.13505034521057L92.02367187499999,133.38727902665636L92.24091796875,134.01649379503667L92.5656787109375,132.03831415010654L92.74080566406249,131.4827803497503L92.95583496093751,129.60925047069728L93.68294433593749,130.26409837406837L93.86693847656251,125.95372944624401L94.0908349609375,125.88849258274541L94.53751953125,130.40078166604462L94.8800146484375,130.47953006583705L94.9265673828125,133.8606948943928L95.3765771484375,135.41932502758476L95.652568359375,133.7519273806928L96.1945751953125,131.59802190478553L96.4040625,129.19466238299555L96.4539404296875,132.5430246630582L96.91835937500001,135.0614505087896L97.8305712890625,136.16443775418782L97.8505224609375,139.63711074008575L97.95803710937501,139.08092492052333L98.01456542968751,135.59342278348456L98.193017578125,136.56531785283715L98.8369970703125,137.01055291774412L98.8525146484375,136.26166286651812L99.1517822265625,136.6241589727075L99.4443994140625,133.01462951672502L99.531962890625,136.29568649722592L99.66164550781251,133.68164559360417L100.26793945312501,133.34353364098712L100.39873046875,134.71103000961926L100.48296875,132.97654061629288L100.7700439453125,135.31094016470857L100.85982421874999,132.19740082048384L101.33865234375,132.42017818643455L101.47831054687501,135.7072211629379L101.50712890625,136.76792305908967L101.635703125,136.38714535103662L101.868466796875,136.41576496223462L101.9249951171875,132.25210670477065L101.94937988281251,136.27849446785993L101.98595703125001,135.40095639081326L102.0136669921875,135.7508812482746L102.30185058593749,137.63884223807403L102.3040673828125,137.40790385012954L102.4171240234375,135.80313566747384L102.42044921875001,134.63582587911532L102.591142578125,133.8395798675647L102.7740283203125,133.16004066869203L102.9402880859375,137.2706113906478L103.0910302734375,138.13831094931214L103.27945800781251,135.9842073126474L103.96112304687499,135.54402932741277L104.01321777343749,136.84529591600915L104.07972167968751,137.54231111228955L104.10521484374999,135.60548758489188L104.3967236328125,133.992459147765L105.1881201171875,137.6221874335967L105.48738769531249,137.11601437625663L105.8176904296875,135.86300438536628L105.8376416015625,137.2101457333173L105.92631347656251,136.40612670767936L106.3264453125,136.01563895382662L106.647880859375,133.65826446466554L106.88396972656251,134.94773395420856L106.940498046875,131.23671993024197L107.10010742187501,136.20249876518278L107.15220214843751,137.4769638029589L107.281884765625,135.43801664592942L107.410458984375,137.50353862409068L107.4182177734375,140.18626561620397L107.73411132812501,137.66600993161538L108.102099609375,132.4832453479477L108.51331542968751,134.94122889906814L108.7726806640625,138.28390770015508L108.85359375,135.90913392563098L109.4820556640625,135.7251955727305L109.55742675781251,132.97427939203774L109.6427734375,136.35107897685407L109.658291015625,137.3720521854844L109.70151855468751,136.96301746502436L109.7369873046875,137.46670425063323L110.19475585937501,137.38644175425736L110.3931591796875,137.014378136519L110.8121337890625,139.29690605215634L110.8742041015625,139.57303103662971L110.87863769531249,140.2552186261561L110.95068359374999,137.7791911225585L111.02272949218751,135.95630425995995L111.27211914062501,135.20751236892585L111.289853515625,131.52448994944598L111.449462890625,135.28512457820835L111.47828125,135.61591465778986L111.51929199218749,137.64275369619034L111.94380859375,135.84078063979567L111.96486816406251,137.62307985493436L112.0779248046875,137.35019061904484L112.37054199218751,139.5213800617536L112.495791015625,136.5500628296125L112.53458496093751,135.04309490627577L113.872421875,135.16240081120446L113.91010742187501,133.32199395375798L113.9976708984375,131.38488889263482L114.4609814453125,134.49673258201128L115.00963867187501,131.47971528402473L115.4917919921875,133.59589477081005L115.72677246093751,135.65624617724956L115.9395849609375,136.3201097489258L116.033798828125,134.12450384264352L116.180107421875,135.8260429769168L116.4804833984375,134.69936636921224L116.5691552734375,135.9685484277395L116.94490234375,136.1773406849615L116.9792626953125,137.5755243431814L117.01583984375,136.00613417186065L117.142197265625,136.42040341888503L117.2120263671875,136.49577448513887L117.505751953125,137.97530428288448L118.35478515625,139.4130159149651L118.4489990234375,141.54421250150108L118.6075,143.6772620138556L119.0342333984375,141.982272310676L119.097412109375,141.14060732833852L119.336826171875,140.49060421921197L119.51749511718751,139.64548099301686L119.8588818359375,138.57475036583799L120.45409179687499,139.39753532798562L120.6103759765625,139.9252228734879L121.105830078125,131.19034171509674L121.20004394531249,136.51039002453047L121.2177783203125,137.12683947124933L121.6411865234375,138.630613648527L121.89390136718751,136.1090174932081L121.96262207031249,138.79172579281322L122.18651855468751,140.39472140242333L122.422607421875,142.1970119964759L123.13641601562499,143.74347122045936L123.36474609375,142.47056565348853L123.7238671875,140.18522822850673L123.74603515625,139.71259951110918L123.74936035156249,138.76566656137248L123.84357421875,138.76685917618718L123.84689941406249,141.4526945043674L124.2736328125,139.7481305500311L124.9486474609375,138.13698447468533L125.01404296874999,139.28714558138046L125.388681640625,139.12352456437702L125.4961962890625,137.55757353223655L125.7710791015625,136.08547406177098L126.2476904296875,138.6661928190611L126.9515234375,138.90270838149323L127.22640625,139.56649170716366L127.34500488281249,140.78135583385682L127.5289990234375,136.9317552672914L127.669765625,137.83260733244367L127.8216162109375,127.07014070783583L127.88368652343749,129.51054345911461L127.91915527343751,132.59420031857917L127.9978515625,134.0034964814927L128.41904296875,134.21898663596187L128.5176904296875,133.9335560620181L128.54318359375,132.29431488903478L128.9078466796875,134.26533685023853L129.1672119140625,136.73893975001732L129.2392578125,136.87418884847855L129.85552734375,137.96943742492377L129.933115234375,139.19443755542386L130.1437109375,139.16021969553915L130.34322265625,139.32615270815543L130.56490234375,137.18866472424418L130.65357421874998,139.11101743314475L130.775498046875,139.78952113127L131.02599609375,139.06877916923335L131.23880859375,140.68843528000218L131.316396484375,140.89720650877177L131.37070800781248,142.5094381582178L131.96037597656252,140.00711422451957L132.460263671875,140.18383737423196L132.57775390625,138.2645096665214L132.579970703125,134.8042787346596L132.87923828125,136.1662710609051L133.635166015625,136.9435715479858L133.66065917968749,139.53555051673695L133.84021972656248,140.43593626850395L133.958818359375,142.56673290369537L134.0242138671875,139.28933581627982L134.1128857421875,140.40318158935057L134.196015625,138.915107390258L134.2880126953125,140.0657269875546L134.37557617187503,141.06163332106706L134.4875244140625,138.67437804902815L134.5939306640625,139.20579809168112L134.6693017578125,138.17994363781293L135.13926269531248,138.14639919848133L135.1614306640625,134.5717122647219L135.5648876953125,137.72528012547215L135.7887841796875,136.90444506796192L135.8242529296875,138.96439067075843L135.8841064453125,140.28059358820434L135.9838623046875,141.18108265847036L136.2,138.5168332551424L136.2343603515625,141.5427311879846L136.295322265625,137.49613004281832L136.3341162109375,138.3550630364103L136.34520019531251,140.0616409963836L136.561337890625,141.12792501115618L136.90604980468748,142.92770035431573L137.3826611328125,143.19708483705395L137.74732421875,140.62053970613763L137.811611328125,138.38104032617022L138.22171874999998,141.0295594049466L138.352509765625,140.92145450535253L138.419013671875,140.78155519260667L138.43453125,137.22516022261203L138.45115722656251,138.79203098914755L138.46556640625,139.57795432568628L138.6528857421875,138.14858885667348L139.030849609375,140.20907602317106L139.225927734375,139.53930176008924L139.407705078125,137.4671919869434L139.42322265625,138.21512543019958L139.890966796875,138.49488601048176L139.95414550781248,138.12602119242777L140.090478515625,139.30916212824363L140.285556640625,137.78851221816169L140.396396484375,136.8026716993238L140.8807666015625,138.60261145642312L141.61341796874999,139.17636085218734L141.6943310546875,139.28926235134333L142.37267089843752,136.56312726971464L142.524521484375,138.42981223456238L143.251630859375,138.07374522100196L143.2527392578125,141.03501812121453L143.31702636718748,138.39635627017128L143.5387060546875,137.49657970217294L143.894501953125,136.5096367925252L144.1616259765625,139.08670362754737L144.30350097656247,141.46521914898796L144.340078125,137.73132423519758L144.55510742187502,137.90716060718694L144.741318359375,140.1349240030098L144.8022802734375,140.57790549130726L144.9086865234375,140.69512369770698L145.415224609375,142.21012585752544L145.4606689453125,138.18227726872763L145.5582080078125,139.392822653687L145.80427246093748,141.3579110638118L145.973857421875,139.14924320836758L146.2143798828125,137.67413723072346L146.829541015625,140.78912046731077L147.04457031249999,142.91177085529603L147.0877978515625,143.68637504318855L147.30836914062502,143.9554300298661L147.773896484375,142.90700758459388L148.0698388671875,142.152722057922L148.2383154296875,139.24244198454815L148.50322265625002,139.36866219537495L148.84904296874998,142.6227671781006L149.0341455078125,144.3479704926951L149.43427734374998,141.44830249044557L149.7401953125,142.86477158959661L149.7989404296875,142.9990272451696L150.19463867187503,144.8155874385987L150.20793945312502,146.17111508664811L150.4817138671875,144.5845640737851L150.606962890625,143.8510321115875L150.7854150390625,141.39196377205394L150.88517089843748,142.00068755169238L151.2442919921875,142.21665417206003L151.4881396484375,139.4424355045063L151.5302587890625,141.59697934449332L151.61006347656252,139.75464656746755L151.653291015625,138.29199941454155L151.8683203125,141.48647965012682L151.88383789062502,137.45739291589672L151.9026806640625,134.98267799276837L152.0223876953125,134.27972568487365L152.5544189453125,136.70696008125088L152.7650146484375,137.21316374834862L152.8935888671875,135.322422002682L153.13743652343751,138.7815152731114L153.16958007812502,138.1846361247643L153.68055175781248,140.467188404974L153.96541015625,136.91604175357617L153.9975537109375,141.21193270914912L154.065166015625,138.43933742483352L154.402119140625,139.59297442176876L154.588330078125,141.07830003016554L155.1525048828125,139.67402685620405L156.4969921875,139.62302188061486L156.4981005859375,140.42902114351278L156.65216796875,140.8073051053863L156.685419921875,139.26287006131298L156.7308642578125,136.60579176838093L157.2096923828125,137.8108441444927L157.2562451171875,140.07062739924748L157.61979980468752,142.94414803644216L158.082001953125,140.25618478930113L158.095302734375,141.74349457681845L158.21168457031249,139.24036901584668L158.57634765625,139.5261916315043L159.1759912109375,140.66367951425815L159.2025927734375,142.7829596461678L159.239169921875,142.52471616234328L159.7235400390625,140.78177678549852L159.8277294921875,139.86992261209826L160.19904296874998,142.2418802345469L160.45175781249998,141.63735209463087L160.516044921875,142.7953167185667L160.7654345703125,144.2119504255344L161.039208984375,141.75310017614305L162.31830078125,142.94236823334538L162.58764160156252,141.5946149728551L162.8625244140625,139.72558161150542L162.92126953125,141.39624868769124L163.0420849609375,143.16197435454234L163.189501953125,142.24464980122866L163.393447265625,141.12545787949813L163.53532226562498,143.05044427802832L163.6406201171875,142.1770506195168L163.8046630859375,143.5967340163553L163.8401318359375,144.0238515950539L163.907744140625,142.36504586039774L163.9276953125,135.60965540527576L164.167109375,140.1200606947796L164.379921875,141.14413317192535L164.4951953125,143.65960954188668L164.98732421875,145.1738218945078L165.313193359375,142.90101486082744L165.50383789062502,143.51211279458326L165.601376953125,142.53183572382642L165.614677734375,143.5008270313794L165.623544921875,139.91960178929298L165.707783203125,141.78162833343583L165.7554443359375,141.16632556090138L166.1766357421875,141.4111024349593L166.33846191406252,141.3935319582917L167.0389697265625,139.86924941958773L167.28614257812498,137.94962082920543L167.91238769531247,140.72694159935756L167.92458007812502,143.2697501150718L168.121875,143.5946877531976L168.181728515625,142.04695548133674L168.33912109375,143.28145111406815L169.22583984375,141.38873109596952L169.49185546875,141.62771553667176L169.813291015625,143.1064574484336L169.937431640625,138.88558958600802L170.1701953125,142.13094244982807L170.25,142.5610408755303L170.53818359375,142.65687092197896L170.7011181640625,142.62582920791485L171.1101171875,139.7948201626645L171.1245263671875,137.85297474414745L171.218740234375,138.49504342362667L171.6654248046875,141.88125853581954L171.78291503906252,142.57105610918242L172.4834228515625,143.5517299762442L172.76828125,138.85368569112268L173.1418115234375,142.16539587373404L173.2205078125,142.89133036357086L173.30696289062502,142.06985394312096L173.65610839843748,140.88629836427063L173.661650390625,141.35531857110198L173.6782763671875,141.37226867495258L174.04404785156248,140.98663026030826L174.0795166015625,139.6478028171418L174.29787109375,143.13261097852336L174.55280273437498,145.16514139516025L174.6447998046875,143.05283243115466L174.665859375,141.8521403363688L174.7800244140625,140.29590551101228L175.08926757812497,139.98847525115644L175.61908203125,140.6284004397442L175.6501171875,140.20292620538174L175.74543945312502,140.6354846447915L176.16773925781249,141.61277266056598L176.52131835937502,143.83390568590914L176.6820361328125,141.7007753139541L176.73302246093752,142.46160897051126L177.3160400390625,142.51475016853112L177.36037597656252,140.092900850808L177.39362792968748,141.49463054414713L177.40471191406252,141.62464302525592L177.4889501953125,142.6687562618892L177.5266357421875,141.43296397025827L177.62306640625,143.77029232082035L177.65742675781252,143.19853688163914L178.175048828125,143.3181983572743L178.43995605468749,142.5187170498074L178.698212890625,142.75242208018904L179.3976123046875,144.51207547277215L179.4375146484375,142.57648060673478L179.545029296875,142.93140715452432L179.77779296875,140.51777616541028L179.7789013671875,143.81320171229802L180.11031250000002,143.0833190552757L180.3929541015625,145.05839447780644L180.54923828124998,143.60747714074967L180.875107421875,143.14667641033242L181.048017578125,143.87894820636217L181.20651855468748,142.26931104311768L181.3018408203125,140.88082364618435L181.51908691406248,141.74742021631988L181.546796875,141.7513310792851L181.686455078125,141.49498314203663L181.76404296875,138.1363578930011L182.02784179687498,139.9105733187205L182.0932373046875,143.65404364704827L182.22513671875,143.09651186281286L182.362578125,142.97727984064127L183.5762744140625,141.04440945505087L183.6738134765625,140.93143140640248L183.717041015625,137.31564246455662L183.7624853515625,139.55860507810016L184.3399609375,140.79005469396054L184.4363916015625,140.96679422834123L184.7655859375,141.8877275923109L185.508212890625,141.70668786595562L185.6467626953125,144.27029298114954L186.4204248046875,141.69273548762902L186.53015625,142.54508150676435L186.6808984375,141.37035095399347L186.816123046875,141.51143581513003L186.88041015625,144.79735577355882L186.9568896484375,141.42788519755638L186.9613232421875,138.04027632174274L187.073271484375,139.14086447952616L187.16859375,140.83008058815258L187.809248046875,140.78815307109986L187.9344970703125,140.86735408284923L188.07637207031252,141.11097916053927L188.30137695312501,143.49880807235655L188.3579052734375,141.4240744059373L188.434384765625,143.7537643493765L188.438818359375,143.17760851317962L189.02294433593752,143.49653541466188L189.04400390625,143.02962094691748L189.13267578125,143.77582325620864L189.267900390625,143.94671074246412L189.38428222656248,143.10416236159233L189.58268554687498,144.7687062872173L189.598203125,145.6321572917087L189.63810546874998,145.64303327291506L189.6835498046875,143.49020670809924L189.7877392578125,143.5838058212911L189.84205078125,143.201554504157L189.9495654296875,143.64797614983968L190.0415625,143.94518787069472L190.1379931640625,144.48422411592813L190.15794433593751,145.59534974783367L190.30757812500002,142.66998491415205L191.22422363281248,140.37563350828782L191.493564453125,139.63938724835094L192.36919921875,142.17233823710308L192.4434619140625,139.6614623273827L192.51107421875,139.75868388863907L192.91009765625,138.19810076461735L193.4388037109375,140.70223047424258L193.5973046875,145.12035923027338L194.1792138671875,143.12018406107032L194.2656689453125,140.4829529675186L194.61703125,143.3757919309938L194.76777343749998,144.4317560647967L194.7843994140625,143.80593884140507L195.4206201171875,142.53457359731348L195.51261718749998,143.07032370543573L195.80080078125,142.82003312439377L195.99366210937498,144.51648849222454L196.0745751953125,140.90834910823938L196.2364013671875,143.63634320000727L196.2574609375,142.2367433919008L196.33061523437502,142.78157104825945L196.5090673828125,142.39363177106364L196.609931640625,142.949080798391L196.66313476562502,143.35498711711972L196.87705566406248,142.8732221622575L197.0832177734375,141.11219047423054L197.21400878906252,141.12909489715605L197.2893798828125,141.9306421856255L197.3403662109375,144.87641146072272L198.068583984375,144.9329578048797L198.241494140625,142.88886160026857L198.3855859375,139.50482874331396L198.56182128906252,141.38361554618191L198.85554687500002,139.49439694866842L198.981904296875,143.77961464016323L199.26676269531248,144.01913794495871L199.735615234375,142.91209075789578L199.79103515625,144.05338004464463L199.98167968750002,145.47063868565593L200.02269042968751,142.71210922836204L200.29646484375002,144.3127844288286L200.56913085937498,144.53217050131178L200.7963525390625,145.25327078414568L200.8273876953125,146.17350879825716L201.02357421875,146.3248117582802L201.673095703125,143.3994961730721L201.6985888671875,141.77182230186952L201.88590820312498,141.74678513725098L201.8870166015625,143.7996753127545L201.956845703125,144.47870200111984L202.04773437499998,141.2103475507171L202.1907177734375,140.8773615447325L202.25389648437502,141.6685124193217L202.37471191406252,141.5024163596085L202.45340820312498,143.43304091757543L202.60304199218749,139.28163138712054L202.9787890625,138.4048368506706L203.16500000000002,139.99696389916994L203.89654296875,139.62309954707894L204.0262255859375,141.78445875775859L204.634736328125,141.33909374300865L204.8530908203125,142.43884703531398L204.8974267578125,143.80784347445987L205.033759765625,144.64439743379486L205.5668994140625,144.7713088322862L205.7154248046875,145.1857015791794L205.9404296875,146.17143529345157L206.1587841796875,146.19242164911068L206.492412109375,147.0211638334914L206.5179052734375,144.8663745839014L206.7307177734375,142.94926677501883L207.126416015625,141.83396618176513L207.2117626953125,143.89796258432574L207.4356591796875,144.74576168170813L207.529873046875,143.072884157218L207.65290527343748,142.17693403104988L207.70943359375002,141.0153967436555L207.98431640625,142.3039384225847L208.4199169921875,140.87187538652668L208.57841796875002,141.97564985042243L208.81007324218749,141.29904682716983L208.9874169921875,140.19538963127886L209.176953125,140.0626006990001L209.338779296875,141.78170677136333L209.3509716796875,142.83048497921794L209.493955078125,142.99430866531475L209.516123046875,142.74226829225984L209.8453173828125,144.92916140155592L210.101357421875,145.93424184037207L210.3906494140625,145.51815203197575L210.4549365234375,145.29500375877484L210.55469238281248,146.49775281520584L210.80408203125,145.7664390253836L211.1443603515625,146.38863482655967L211.93908203125,145.943567969095L212.39130859375,146.573255668024L212.4345361328125,143.9876867492138L212.4456201171875,145.88190844418935L213.0685400390625,148.52660174123844L213.27359375,146.43248862491487L213.88986328125,147.7834910328176L214.0239794921875,145.58542529910721L214.113759765625,145.63110692833317L214.13038574218749,148.5556733067152L214.24787597656248,146.1047328621338L214.44184570312498,146.03368771479668L214.53716796875,144.21010216016256L214.7466552734375,144.0455159143429L215.48817382812499,145.00641959850913L215.7464306640625,141.33434063953115L216.051240234375,142.2470983458278L216.259619140625,142.81800389961703L216.32612304687498,145.58197479286076L216.4402880859375,143.65106078111103L216.556669921875,143.62317011399847L216.7484228515625,145.4317688917743L217.3358740234375,143.20784975934785L217.5442529296875,141.6673706288562L217.55977050781252,144.0488798333958L217.576396484375,145.82013324439558L217.65398437500002,144.09123437547703L217.89229003906252,138.16204628881226L218.44870605468748,140.0054009883786L219.1137451171875,140.19052347685007L219.2157177734375,143.79049555082685L219.3553759765625,142.06059365462997L219.67570312499998,142.4957758438095L220.19554199218751,142.1668639605644L220.20219238281248,141.59299313473122L220.2398779296875,140.01462466059573L220.3839697265625,140.8808853320089L220.75639160156248,138.2717339761142L220.78853515625,139.63701491204404L221.07893554687502,142.13537873423104L221.1332470703125,142.48889903304578L221.325,143.50105499641657L221.642001953125,141.40612129489517L222.0288330078125,144.42952066627106L222.0620849609375,145.44342023606276L222.34916015625,145.56084107339487L222.84239746093752,145.17124601411882L222.8468310546875,142.2356916124109L222.90779296875,141.91886931952737L223.08402832031248,144.99843022895993L223.1172802734375,146.100537367154L223.23255371093748,144.57212147980263L223.3012744140625,146.80151681010025L223.49302734375,144.9695281094557L223.99291503906252,143.03725305132542L224.45290039062502,145.63204943020628L224.8219970703125,145.64890755909374L224.88185058593749,144.56321273832137L224.9428125,145.02315462813445L224.94835449218752,146.04681268787783L225.2531640625,147.8251111416155L225.3052587890625,147.27743339482748L225.3074755859375,144.29705560740115L225.54356445312501,143.11912727422288L225.667705078125,144.08707155520779L225.902685546875,144.3508310589794L226.02571777343752,142.2724748175504L226.0368017578125,144.50480430073512L226.27843261718752,147.4584707666753L226.9390380859375,146.1876492988657L226.95012207031252,147.32597302640028L227.0277099609375,147.62602157075435L227.285966796875,144.5334387794389L227.9033447265625,143.6845616658183L228.3356201171875,144.62984805134846L228.58722656249998,142.1131251120741L228.60163574218748,143.20931012983172L228.83439941406252,143.3774941794875L228.9252880859375,145.11367749029714L229.09265625,145.90204155328462L229.12369140624997,144.05657394130583L229.3553466796875,143.3928004792306L229.476162109375,140.46773489034015L229.538232421875,141.68307404765986L229.59365234375,142.50249803438487L229.60584472656248,143.19506704777302L230.103515625,144.67307480898393L230.185537109375,146.3236186455303L230.48369628906252,143.67916560593923L230.53468261718749,143.60770180671622L230.624462890625,144.75090284116095L230.96363281249998,145.77656681339158L231.9113134765625,145.61697244018444L231.93458984375,146.05995994922594L231.9423486328125,146.22567956040547L231.967841796875,144.7662176390901L232.012177734375,146.59647609862176L232.295927734375,146.2720295955836L232.45775390625,145.43138614684935L232.686083984375,146.2487678417748L232.6894091796875,144.1160601278654L233.009736328125,142.110700796277L233.138310546875,143.9278754284863L233.25358398437498,144.8701086691549L234.52048339843748,145.442031497674L235.2187744140625,145.2508671257894L236.4202783203125,143.0439626243115L236.45796386718752,145.12467966557446L236.649716796875,145.13114842790904L236.90021484374998,145.72951815705622L236.94011718750002,146.0821631655462L237.61180664062502,142.25105356427235L237.713779296875,144.48076292061629L237.8855810546875,146.84772901614798L238.2580029296875,143.84746588739927L238.61823242187498,145.65720842136847L238.6348583984375,144.77732436614576L238.7490234375,146.31505002130476L238.8742724609375,144.60333763658645L238.99176269531247,145.6711357864716L239.3131982421875,146.41649760062865L239.963828125,146.90891263234835L240.21875976562498,145.5644991810514L240.2741796875,145.31729043039044L240.52800292968752,146.3512600032232L240.6643359375,147.01738235691138L240.7707421875,144.56136621930568L241.32715820312498,144.78364226206165L241.5366455078125,145.78188683276784L241.8536474609375,146.07471050663537L242.085302734375,146.90863311950116L242.5741064453125,145.71545790278165L242.57854003906252,145.6463657276675L243.02633300781253,147.0863128793594L243.05736816406252,143.10303031577808L243.473017578125,141.80089927464212L243.47634277343752,140.82582135915447L243.61267578124998,142.2766802951377L243.74568359375,145.29051540320702L243.84654785156252,146.76396634862178" style="fill: none;" fill="none"></path></g></g></g></g><g opacity="0.2"><g><g><g><path stroke="rgb(255, 112, 67)" stroke-width="2px" d="M29.5931298828125,-7.019081112742441L29.6064306640625,8.487802970409405L29.764931640625,10.758695232868206L29.889072265625,3.214308473467838L30.0985595703125,13.27768445312978L30.43662109375,22.438097226619732L30.4399462890625,14.0228852659464L30.811259765625,21.20549857914449L30.850053710937498,18.494116517901432L31.108310546875,27.647394838929188L31.23466796875,31.780234131217014L31.2801123046875,31.51939802169801L31.587138671875,19.2337785691023L31.59822265625,22.717250812053692L32.008330078125,25.229092392325413L32.0715087890625,39.43376086950303L32.43173828125,50.35369314551353L32.66228515625,32.38962978422643L32.757607421875,33.784725147485744L32.917216796875,37.06135101914407L33.694204101562505,52.99019642472267L33.7828759765625,57.45652191638946L33.830537109375,46.47794470489026L34.2550537109375,64.17052302807569L34.322666015625,50.525717850029466L34.382519531250004,53.50903332531452L34.95001953125,52.42881655991077L34.987705078125,53.08788962960243L35.4343896484375,58.485149073600766L35.439931640625005,53.37994721084833L35.65052734375,66.5290266305208L35.790185546875,72.66293477565048L36.440815429687504,88.55283081829548L36.614833984375,72.08384406119583L36.6447607421875,66.2308566302061L37.264355468750004,75.3851503908634L38.011416015625,83.29571523070334L38.42595703125,81.36342592835425L38.5489892578125,84.19180114120243L38.6531787109375,91.74058594107628L39.318217773437496,92.34011072963476L39.64076171875,86.4412570774555L40.030917968749996,84.24147196412085L40.8522412109375,79.7914792254567L41.083896484375,92.42865179032087L41.118256835937494,75.91434609442948L41.3621044921875,99.20850482136011L41.3864892578125,100.44466410130262L41.6126025390625,95.52978463768959L41.6281201171875,94.25832234621048L42.6190283203125,88.69901456236839L43.816098632812505,84.03644547164438L43.936914062499994,100.95695339441299L44.0377783203125,105.62858561351895L44.3303955078125,97.35331639945507L44.3946826171875,105.5292142957449L44.404658203124995,94.47120201140642L44.606386718749995,103.9216744557023L44.6939501953125,95.92421699613332L44.8236328125,95.14377910941839L44.9333642578125,82.90074877738951L44.976591796875,110.79675792083144L45.1993798828125,108.911979983747L45.202705078125,103.18979963958263L45.283618164062496,78.47250227183102L45.533007812499996,104.1734144680202L45.603945312499995,90.04972730129957L45.701484375,107.14785144031048L45.7979150390625,107.35012173950672L46.3842578125,106.79545762315392L46.8242919921875,102.65803236812353L46.918505859375,104.40739088058471L46.949541015624995,105.4824150569737L47.814091796875,113.86119647249579L47.825175781249996,111.68592697307467L47.978134765625,115.82926683425903L48.0612646484375,121.31721360906958L48.1344189453125,112.71952912509441L48.25966796875,101.45935863554477L48.403759765625,111.0353137023747L48.4381201171875,98.85022606998682L48.9324658203125,112.84595465585589L49.082099609375,106.29115008115768L49.08431640625,109.13248863369226L49.126435546875,106.97684876918792L49.4578466796875,101.4585937589407L49.5753369140625,109.22652229964733L49.804775390625004,119.20729160606861L50.1583544921875,110.30601375102997L50.311313476562496,115.47577515542507L50.777949218749995,117.34635671898722L50.8167431640625,98.88891827613115L50.8987646484375,119.81900496706366L51.322172851562506,105.83582761064172L51.8697216796875,107.78546840250492L51.870830078125,105.59225067794323L52.265419921875,108.17554228305816L52.654467773437496,111.23393435329199L52.7630908203125,112.57332559973001L52.801884765625005,107.599504481256L53.0091552734375,102.38668579906225L53.110019531249996,118.1603337854147L53.688603515625005,116.62850354164839L53.8049853515625,121.670880022645L54.278271484375004,111.22546796053648L54.30708984375,123.4156031191349L54.380244140624995,119.05144140422344L54.534311523437495,113.26031007170677L54.6030322265625,111.51233954653144L54.8335791015625,116.76030958369374L54.9887548828125,122.58256348147988L55.2303857421875,103.63687660843134L55.4254638671875,106.45059718117118L55.4542822265625,111.4095229871571L55.612783203125005,113.78243396356702L55.7823681640625,112.1393735177815L55.940869140625,116.95892693772912L56.09826171875,114.71497349739074L56.202451171875,113.49615251943469L56.217968750000004,124.52321037948131L56.978330078125,108.46211714968085L57.0193408203125,119.744769077003L57.5037109375,103.72366372793913L57.56578125,125.09431604593992L57.8661572265625,121.39378369152546L58.1188720703125,118.34635045677423L58.237470703125005,116.48424847349524L58.3649365234375,124.4537187024951L58.481318359374995,126.68218998536467L58.627626953125,129.79623342230917L58.636494140625004,126.6387074097991L58.782802734375004,118.40246338695287L58.9457373046875,118.20821110457182L59.1607666015625,110.22843811959028L59.1918017578125,120.77886905819177L59.562006835937495,114.01522349864244L59.575307617187505,126.26130344644189L59.6152099609375,117.8531435161829L59.6750634765625,124.905971775949L59.71607421875,112.52126783430576L59.7570849609375,108.46043903678655L59.89341796875,123.96759346425533L60.254755859375,120.40218051820993L60.4354248046875,127.82954115718603L60.517446289062505,117.27176146879792L61.3310107421875,122.60154363065958L61.354287109375,127.49348338991403L61.497270507812495,120.80540566071868L61.8164892578125,119.99736957550049L62.0182177734375,121.52563918679952L62.111323242187495,125.13421491086483L62.7674951171875,124.35526062101125L62.800747070312504,124.430914170295L62.920454101562505,123.674246802181L63.012451171875,125.72791410908103L63.402607421875004,127.1039238229394L63.7207177734375,118.05945908948779L64.02552734375,133.10160480737687L64.14966796875,129.9299714371562L64.7914306640625,132.2110362287611L65.08515625,123.2746680110693L65.2181640625,128.10123719573022L65.3744482421875,122.50298993960023L65.72359374999999,124.75810332521796L66.173603515625,128.3634448081255L66.4030419921875,108.57880039438605L66.52607421875,130.3831970907748L66.83199218749999,117.96156807169318L67.05810546875,125.71312759369611L67.2432080078125,123.0498371489346L67.301953125,124.63256135880947L67.3828662109375,122.93978393375873L67.65664062500001,121.12312946766615L67.9126806640625,118.87651874050498L68.2097314453125,127.32935801446438L68.86922851562501,119.01619443967938L69.219482421875,121.60501821264624L69.23943359375,131.01070251613856L69.472197265625,117.82142751216888L70.403251953125,125.73471887335181L70.5373681640625,129.06208375766874L70.6171728515625,121.45645411983132L70.647099609375,139.86570533663036L70.651533203125,125.65693553835153L70.7213623046875,112.74580857083201L70.92974121093751,126.37747897133231L71.0184130859375,128.49407386332751L71.1591796875,117.54230030179023L71.16693847656249,134.9244359817356L71.21570800781251,119.88685809373855L71.27445312500001,118.79012724682688L71.841953125,132.1086251858622L72.00599609375,120.70561563894152L72.45822265624999,122.95530895069241L72.60785644531249,118.47801473289728L72.775224609375,112.02879280149936L73.506767578125,126.3241716876626L73.524501953125,132.3724367313087L73.6120654296875,126.31620642095804L74.59632324218751,124.99091264158487L74.969853515625,127.78295291885733L75.0441162109375,125.79033397436142L75.08734375,122.58288327902555L75.24030273437499,118.03401045799255L75.3123486328125,111.78993700370192L75.337841796875,123.91728304624557L75.45533203125001,117.07052639052272L75.5717138671875,119.04930832162499L75.6227001953125,127.797633934021L75.94967773437499,131.81992877572776L76.7809765625,130.9705366037786L76.86854003906251,139.07751812897624L77.0081982421875,137.0337612491101L77.594541015625,126.54044054746628L77.6499609375,135.77809102199973L77.77077636718751,127.67562952190637L77.8040283203125,133.62220718823374L78.4956689453125,129.4403119415045L78.6730126953125,135.06643763110043L78.844814453125,127.2693415760994L78.94789550781249,126.64498796984553L79.58079101562501,139.3725725758821L79.80579589843751,135.7798663929105L80.12833984375001,140.64195948019625L80.1959521484375,131.0899925261736L80.36997070312499,130.28188720643521L80.560615234375,135.6913170900196L80.808896484375,126.89485865011811L80.8454736328125,126.73272129446268L81.01505859375,127.25056253671646L81.0316845703125,130.67836363166572L81.43181640625,125.56319529488682L81.695615234375,127.98960807099938L81.7078076171875,130.46427071392537L81.86852539062501,137.06320075616242L81.917294921875,130.61350077688695L82.1578173828125,121.46567220166325L82.7873876953125,135.1667073491961L82.9159619140625,130.8942368656397L83.0600537109375,132.10773337930442L83.109931640625,132.95702334791423L83.4612939453125,132.3848132260144L83.7317431640625,126.78697148635983L83.7406103515625,135.3014179442078L83.92017089843749,128.8548219792545L83.97891601562499,137.31626776345075L84.61181152343751,139.58805183246733L84.8002392578125,135.20762495063246L84.81575683593749,137.38940414339305L84.9121875,125.27432250156998L85.1105908203125,140.26804196946324L85.14716796875,129.380199893564L85.6847412109375,122.65698399692774L85.88314453125001,141.8557082053274L86.9427734375,128.72505341023208L87.07134765625,123.78194604367017L87.2520166015625,124.5443104237318L87.281943359375,132.212114309147L87.3007861328125,128.65831462964417L87.85609375,134.83817966021599L87.9081884765625,134.6718239441514L88.0423046875,130.75334461703898L88.2728515625,137.98565018288792L88.30610351562501,130.50387945324184L88.8702783203125,126.66615724861622L88.87692871093749,131.60670623481275L88.9013134765625,129.85594654753805L89.0010693359375,129.6047076612711L89.1983642578125,137.51751932613553L90.0074951171875,134.54965963326396L90.08619140625,133.2693831279874L90.26575195312499,136.38754437044264L90.533984375,122.27564685344696L91.04273925781251,137.1111028019339L91.1314111328125,127.67083915248513L91.46060546875,135.0029743026942L91.4949658203125,134.6082419279963L91.857412109375,130.41033042892815L92.02367187499999,135.26562204882504L92.24091796875,134.96031594760717L92.5656787109375,129.07104468271137L92.74080566406249,130.64947964921595L92.95583496093751,126.79895565211773L93.68294433593749,131.24637022912503L93.86693847656251,119.48817605450749L94.0908349609375,125.79063728749752L94.53751953125,137.16921529099346L94.8800146484375,130.5976526655257L94.9265673828125,138.93244213722647L95.3765771484375,137.75727022737266L95.652568359375,131.25083091035486L96.1945751953125,128.36716369092466L96.4040625,125.58962310031056L96.4539404296875,137.5655680831522L96.91835937500001,138.83908927738668L97.8305712890625,137.81891862228514L97.8505224609375,144.84612021893264L97.95803710937501,138.24664619117976L98.01456542968751,130.3621695779264L98.193017578125,138.02316045686604L98.8369970703125,137.67840551510454L98.8525146484375,135.13832778967918L99.1517822265625,137.16790313199164L99.4443994140625,127.60033533275127L99.531962890625,141.2172719679773L99.66164550781251,129.7605842381716L100.26793945312501,132.83636571206154L100.39873046875,136.76227456256748L100.48296875,130.3748065263033L100.7700439453125,138.81253948733212L100.85982421874999,127.52709180414676L101.33865234375,132.75434423536063L101.47831054687501,140.63778562769295L101.50712890625,138.35897590331734L101.635703125,135.815978788957L101.868466796875,136.45869437903167L101.9249951171875,126.00661931857466L101.94937988281251,142.31807611249388L101.98595703125001,134.0846492752433L102.0136669921875,136.27576853446664L102.30185058593749,140.4707837227732L102.3040673828125,137.0614962682128L102.4171240234375,133.39598339349033L102.42044921875001,132.88486119657756L102.591142578125,132.6452108502388L102.7740283203125,132.14073187038304L102.9402880859375,143.43646747358144L103.0910302734375,139.4398602873087L103.27945800781251,132.7530518576503L103.96112304687499,134.88376234956087L104.01321777343749,138.79719579890372L104.07972167968751,138.58783390671016L104.10521484374999,132.70025229379536L104.3967236328125,131.57291649207474L105.1881201171875,143.06677986234428L105.48738769531249,136.3567547902465L105.8176904296875,133.98348939903082L105.8376416015625,139.2308577552438L105.92631347656251,135.20009816922249L106.3264453125,135.42990732304753L106.647880859375,130.1222027309239L106.88396972656251,136.88193818852307L106.940498046875,125.67019889429211L107.10010742187501,143.651167017594L107.15220214843751,139.3886613596231L107.281884765625,132.37959591038526L107.410458984375,140.60182159133257L107.4182177734375,144.21035610437394L107.73411132812501,133.88562640473248L108.102099609375,124.7090984724462L108.51331542968751,138.6282042257488L108.7726806640625,143.2979259017855L108.85359375,132.34697326384486L109.4820556640625,135.4492880433798L109.55742675781251,128.84790512099863L109.6427734375,141.41627835407854L109.658291015625,138.9035119984299L109.70151855468751,136.34946538433434L109.7369873046875,138.22223442904652L110.19475585937501,137.26604800969363L110.3931591796875,136.45628270991148L110.8121337890625,142.72069792561234L110.8742041015625,139.98721851333977L110.87863769531249,141.27850001044573L110.95068359374999,134.06514986716212L111.02272949218751,133.22197396606208L111.27211914062501,134.08432453237475L111.289853515625,125.99995632022619L111.449462890625,140.92607652135194L111.47828125,136.1120997771621L111.51929199218749,140.6830122537911L111.94380859375,133.1378210552037L111.96486816406251,140.29652867764236L112.0779248046875,136.94085676521064L112.37054199218751,142.77816422581674L112.495791015625,132.09308698140086L112.53458496093751,132.78264302127064L113.872421875,135.3413596685976L113.91010742187501,130.56138366758825L113.9976708984375,128.47923130095006L114.4609814453125,139.164498116076L115.00963867187501,126.95418933704495L115.4917919921875,136.77016400098802L115.72677246093751,138.74677328690888L115.9395849609375,137.3159051064402L116.033798828125,130.8310949832201L116.180107421875,138.37835167832674L116.4804833984375,133.00935145765544L116.5691552734375,137.87232151553036L116.94490234375,136.4905290707946L116.9792626953125,139.67279983051122L117.01583984375,133.65204891487957L117.142197265625,137.04180728942157L117.2120263671875,136.60883108451964L117.505751953125,140.19459897950293L118.35478515625,141.569583363086L118.4489990234375,144.7410073813051L118.6075,146.87683628238736L119.0342333984375,139.4397877559066L119.097412109375,139.8781098548323L119.336826171875,139.51559955552221L119.51749511718751,138.3777961537242L119.8588818359375,136.9686544250697L120.45409179687499,140.6317127712071L120.6103759765625,140.71675419174136L121.105830078125,118.08801997750997L121.20004394531249,144.4904624886811L121.2177783203125,138.05151364132763L121.6411865234375,140.8862749144435L121.89390136718751,132.32662326022984L121.96262207031249,142.8157882422209L122.18651855468751,142.79921481683851L122.422607421875,144.90044788755478L123.13641601562499,146.06316005643455L123.36474609375,140.5612073030323L123.7238671875,136.75722209103407L123.74603515625,139.00365643501283L123.74936035156249,137.34526713676752L123.84357421875,138.7686480984092L123.84689941406249,145.48144749663768L124.2736328125,137.1912846185267L124.9486474609375,135.7202653616667L125.01404296874999,141.01238724142314L125.388681640625,138.8780930388719L125.4961962890625,135.20864698402585L125.7710791015625,133.87732485607268L126.2476904296875,142.53727095499636L126.9515234375,139.25748172514142L127.22640625,140.5621666956693L127.34500488281249,142.6036520238966L127.5289990234375,131.1573544174433L127.669765625,139.1838854301721L127.8216162109375,110.92644077092409L127.88368652343749,133.17114758603276L127.91915527343751,137.21968560777606L127.9978515625,136.117440725863L128.41904296875,134.54222186766566L128.5176904296875,133.5054102011025L128.54318359375,129.83545312955977L128.9078466796875,137.22186979204417L129.1672119140625,140.44934409968556L129.2392578125,137.0770624961704L129.85552734375,139.61231028959156L129.933115234375,141.03193775117398L130.1437109375,139.10889290571214L130.34322265625,139.57505222707988L130.56490234375,133.98243274837733L130.65357421874998,141.99454649649562L130.775498046875,140.80727667845787L131.02599609375,137.98766622617842L131.23880859375,143.11791944615544L131.316396484375,141.21036335192622L131.37070800781248,144.92778563238681L131.96037597656252,136.25362832397224L132.460263671875,140.44892209880055L132.57775390625,135.38551810495557L132.579970703125,129.61393233686687L132.87923828125,138.20925955027343L133.635166015625,138.1095222786069L133.66065917968749,143.42351896986366L133.84021972656248,141.78651489615442L133.958818359375,145.76292785648255L134.0242138671875,134.37324018515648L134.1128857421875,142.0739502489567L134.196015625,136.68299609161915L134.2880126953125,141.79165638349951L134.37557617187503,142.5554928213358L134.4875244140625,135.09349514096976L134.5939306640625,140.00292815566064L134.6693017578125,136.64116195701064L135.13926269531248,138.09608253948392L135.1614306640625,129.20968186408282L135.5648876953125,142.4556319165975L135.7887841796875,135.67319248169662L135.8242529296875,142.0543090749532L135.8841064453125,142.25489796437324L135.9838623046875,142.53181626386942L136.2,134.52045915015043L136.2343603515625,146.0815780872479L136.295322265625,131.42622832506896L136.3341162109375,139.64346252679826L136.34520019531251,142.62150793634356L136.561337890625,142.72735103331507L136.90604980468748,145.62736336905508L137.3826611328125,143.6011615611613L137.74732421875,136.75572200976313L137.811611328125,135.02179125621916L138.22171874999998,145.0023380231112L138.352509765625,140.7592971559614L138.419013671875,140.57170622348787L138.43453125,131.8905677676201L138.45115722656251,141.14233713895084L138.46556640625,140.75683933049442L138.6528857421875,136.00454065315427L139.030849609375,143.29980677291752L139.225927734375,138.5346403654665L139.407705078125,134.35902732722462L139.42322265625,139.33702559508384L139.890966796875,138.91452688090504L139.95414550781248,137.57272396534682L140.090478515625,141.0838735319674L140.285556640625,135.5075373530388L140.396396484375,135.323910921067L140.8807666015625,141.30252109207214L141.61341796874999,140.0369849458337L141.6943310546875,139.45861460007728L142.37267089843752,132.47392464727164L142.524521484375,141.229839681834L143.251630859375,137.5396447006613L143.2527392578125,145.4769274715334L143.31702636718748,134.43836349360646L143.5387060546875,136.1469148501754L143.894501953125,135.02922242805363L144.1616259765625,142.9523038800806L144.30350097656247,145.03299243114887L144.340078125,132.13048186451198L144.55510742187502,138.17091516517104L144.741318359375,143.47656909674407L144.8022802734375,141.24237772375346L144.9086865234375,140.8709510073066L145.415224609375,144.4826290972531L145.4606689453125,132.14050438553096L145.5582080078125,141.20864073112608L145.80427246093748,144.30554367899896L145.973857421875,135.8362414252013L146.2143798828125,135.46147826425732L146.829541015625,145.4615953221917L147.04457031249999,146.0957464372739L147.0877978515625,144.84828132502736L147.30836914062502,144.35901250988246L147.773896484375,141.3343739166856L148.0698388671875,141.0212937679142L148.2383154296875,134.8770218744874L148.50322265625002,139.55799251161517L148.84904296874998,147.503924652189L149.0341455078125,146.9357754645869L149.43427734374998,137.0988004870713L149.7401953125,144.98947523832322L149.7989404296875,143.2004107285291L150.19463867187503,147.54042772874234L150.20793945312502,148.20440655872224L150.4817138671875,142.20473755449058L150.606962890625,142.7507341682911L150.7854150390625,137.70336126275362L150.88517089843748,142.91377322115005L151.2442919921875,142.54060410261155L151.4881396484375,135.28110750317575L151.5302587890625,144.82879510447384L151.61006347656252,136.9911474019289L151.653291015625,136.09802868515254L151.8683203125,146.27820000350474L151.88383789062502,131.4137628145516L151.9026806640625,131.27060560807587L152.0223876953125,133.22529722303153L152.5544189453125,140.34781167581679L152.7650146484375,137.9724692489952L152.8935888671875,132.4863093841821L153.13743652343751,143.97015517875553L153.16958007812502,137.28931740224363L153.68055175781248,143.89101682528855L153.96541015625,131.5893217764795L153.9975537109375,147.6557691425085L154.065166015625,134.28044449836017L154.402119140625,141.3234299171716L154.588330078125,143.30628844276072L155.1525048828125,137.56761709526182L156.4969921875,139.5465144172311L156.4981005859375,141.6380200378597L156.65216796875,141.37473104819657L156.685419921875,136.94621749520303L156.7308642578125,132.62017432898284L157.2096923828125,139.61842270866038L157.2562451171875,143.4603022813797L157.61979980468752,147.25442899223415L158.082001953125,136.2242399185896L158.095302734375,143.97445925809444L158.21168457031249,135.48568067438902L158.57634765625,139.95492555499078L159.1759912109375,142.36991133838893L159.2025927734375,145.9618798440322L159.239169921875,142.13735093660654L159.7235400390625,138.16736772023143L159.8277294921875,138.50214135199786L160.19904296874998,145.79981666821985L160.45175781249998,140.73055988475681L160.516044921875,144.53226365447046L160.7654345703125,146.33690098598598L161.039208984375,138.06482480205597L162.31830078125,144.7262703191489L162.58764160156252,139.57298508211971L162.8625244140625,136.9220315694809L162.92126953125,143.90224930197002L163.0420849609375,145.81056285481898L163.189501953125,140.86866297125817L163.393447265625,139.44666999690236L163.53532226562498,145.9379238758236L163.6406201171875,140.86696013174952L163.8046630859375,145.72625911161302L163.8401318359375,144.66452796310188L163.907744140625,139.87683725841345L163.9276953125,125.47656972259283L164.167109375,146.88566862903534L164.379921875,142.68024188764394L164.4951953125,147.43282409682868L164.98732421875,147.44514042343943L165.313193359375,139.49180431030692L165.50383789062502,144.42875969521702L165.601376953125,141.06142011769117L165.614677734375,144.95431399270893L165.623544921875,134.54776392616333L165.707783203125,144.5746681496501L165.7554443359375,140.24337140209974L166.1766357421875,141.7782677460462L166.33846191406252,141.36717624329032L167.0389697265625,137.58282561153175L167.28614257812498,135.07017794363202L167.91238769531247,144.89292275458575L167.92458007812502,147.08396288864313L168.121875,144.0820942103863L168.181728515625,139.72535707354547L168.33912109375,145.1331945631653L169.22583984375,138.54965106882156L169.49185546875,141.9861921977252L169.813291015625,145.32457031607626L169.937431640625,132.55428779236973L170.1701953125,146.99897174555807L170.25,143.20618851408364L170.53818359375,142.80061599165202L170.7011181640625,142.57926663681866L171.1101171875,135.54830659478904L171.1245263671875,134.94020661637188L171.218740234375,139.45814644284548L171.6654248046875,146.96058120410888L171.78291503906252,143.60575246922673L172.4834228515625,145.02274077683686L172.76828125,131.80661926344038L173.1418115234375,147.13296114765106L173.2205078125,143.9802320983261L173.30696289062502,140.83763931244613L173.65610839843748,139.11096499599518L173.661650390625,142.05884888134898L173.6782763671875,141.39769383072854L174.04404785156248,140.4081726383418L174.0795166015625,137.63956165239216L174.29787109375,148.3598232205957L174.55280273437498,148.21393702011554L174.6447998046875,139.8843689851463L174.665859375,140.05110219419004L174.7800244140625,137.96155327297748L175.08926757812497,139.52732986137272L175.61908203125,141.58828822262586L175.6501171875,139.5647148538381L175.74543945312502,141.2843223039061L176.16773925781249,143.07870468422772L176.52131835937502,147.1656052239239L176.6820361328125,138.5010797560215L176.73302246093752,143.60285945534707L177.3160400390625,142.59446196556092L177.36037597656252,136.46012687422336L177.39362792968748,143.5972250841558L177.40471191406252,141.81966174691917L177.4889501953125,144.23492611683906L177.5266357421875,139.5792755328119L177.62306640625,147.27628484666346L177.65742675781252,142.34090372286738L178.175048828125,143.497690570727L178.43995605468749,141.31949508860708L178.698212890625,143.10297962576152L179.3976123046875,147.1515555616468L179.4375146484375,139.6730883076787L179.545029296875,143.4637969762087L179.77779296875,136.89732968173922L179.7789013671875,148.75634003262965L180.11031250000002,141.9884950697422L180.3929541015625,148.02100761160253L180.54923828124998,141.4311011351645L180.875107421875,142.45547531470658L181.048017578125,144.97735590040685L181.20651855468748,139.85485529825092L181.3018408203125,138.79809255078436L181.51908691406248,143.0473150715232L181.546796875,141.75719737373294L181.686455078125,141.11046123616399L181.76404296875,133.09842001944781L182.02784179687498,142.5718964572996L182.0932373046875,149.26924913953988L182.22513671875,142.2602141864598L182.362578125,142.7984318073839L183.5762744140625,138.14510387666525L183.6738134765625,140.76196433342994L183.717041015625,131.89195905178786L183.7624853515625,142.92304899841548L184.3399609375,142.63722911775113L184.4363916015625,141.23190352991224L184.7655859375,143.2691276382655L185.508212890625,141.43512827642263L185.6467626953125,148.11570065394042L186.4204248046875,137.82639924734832L186.53015625,143.82360053546728L186.6808984375,139.60825512483717L186.816123046875,141.7230631068349L186.88041015625,149.72623571120204L186.9568896484375,136.37367933355273L186.9613232421875,132.95886300802232L187.073271484375,140.79174671620132L187.16859375,143.3639047510922L187.809248046875,140.7252617955208L187.9344970703125,140.9861556004733L188.07637207031252,141.47641677707435L188.30137695312501,147.08055144008247L188.3579052734375,138.31197390630842L188.434384765625,147.2482992645353L188.438818359375,142.31337475888432L189.02294433593752,143.9749257668853L189.04400390625,142.3292492453009L189.13267578125,144.89512672014536L189.267900390625,144.20304197184743L189.38428222656248,141.84033979028465L189.58268554687498,147.26552217565475L189.598203125,146.92733379844574L189.63810546874998,145.65934724472461L189.6835498046875,140.2609668608755L189.7877392578125,143.72420449107886L189.84205078125,142.62817752845586L189.9495654296875,144.31760861836375L190.0415625,144.39100545197726L190.1379931640625,145.29277848377822L190.15794433593751,147.26203819569199L190.30757812500002,138.28193766362966L191.22422363281248,136.93410639949144L191.493564453125,138.53501785844566L192.36919921875,145.97176472023128L192.4434619140625,135.89514846280218L192.51107421875,139.9045162305236L192.91009765625,135.8572260785848L193.4388037109375,144.45842503868045L193.5973046875,151.74755236431957L194.1792138671875,140.11992130726577L194.2656689453125,136.527106327191L194.61703125,147.71505037620662L194.76777343749998,146.015702265501L194.7843994140625,142.86721300631763L195.4206201171875,140.62752573117615L195.51261718749998,143.87394886761905L195.80080078125,142.44459725283087L195.99366210937498,147.0611715439707L196.0745751953125,135.49614003226162L196.2364013671875,147.72833433765916L196.2574609375,140.13734367974104L196.33061523437502,143.59881253279747L196.5090673828125,141.81172285526992L196.609931640625,143.78225433938206L196.66313476562502,143.96384659521283L196.87705566406248,142.15057472996415L197.0832177734375,138.47064294219018L197.21400878906252,141.15445153154434L197.2893798828125,143.13296311832966L197.3403662109375,149.29506537336854L198.068583984375,145.01777732111512L198.241494140625,139.8227172933519L198.3855859375,134.42877945788206L198.56182128906252,144.20179575048388L198.85554687500002,136.66056905239822L198.981904296875,150.20744117740543L199.26676269531248,144.37842290215195L199.735615234375,141.25151997730137L199.79103515625,145.7653139747679L199.98167968750002,147.59652664717285L200.02269042968751,138.57431504242123L200.29646484375002,146.7137972295284L200.56913085937498,144.86124961003662L200.7963525390625,146.33492120839654L200.8273876953125,147.55386581942437L201.02357421875,146.5517661983147L201.673095703125,139.01152279525996L201.6985888671875,139.3303114950657L201.88590820312498,141.70922939032317L201.8870166015625,146.87901057600973L201.956845703125,145.49724203366785L202.04773437499998,136.30781587511302L202.1907177734375,140.37788253575565L202.25389648437502,142.85523873120547L202.37471191406252,141.25327227003874L202.45340820312498,146.32897775452582L202.60304199218749,133.05451709143819L202.9787890625,137.08964504599572L203.16500000000002,142.38515447191895L203.89654296875,139.0623030189425L204.0262255859375,145.02649757377802L204.634736328125,140.67104622088374L204.8530908203125,144.08847697377206L204.8974267578125,145.86133813317863L205.033759765625,145.89922837279735L205.5668994140625,144.9616759300232L205.7154248046875,145.8072906995192L205.9404296875,147.6500358648598L206.1587841796875,146.22390118259935L206.492412109375,148.26427711006252L206.5179052734375,141.63419070951642L206.7307177734375,140.073605061695L207.126416015625,140.16101529188455L207.2117626953125,146.99395718816666L207.4356591796875,146.01746032778172L207.529873046875,140.5635678704828L207.65290527343748,140.83300884179772L207.70943359375002,139.2730908125639L207.98431640625,144.23675094097854L208.4199169921875,138.72378083243967L208.57841796875002,143.6313115462661L208.81007324218749,140.28414229229094L208.9874169921875,138.5399038374424L209.176953125,139.86341730058194L209.338779296875,144.36036587990822L209.3509716796875,144.4036522909999L209.493955078125,143.24004419445993L209.516123046875,142.36420773267747L209.8453173828125,148.20950106550006L210.101357421875,147.4418624985963L210.3906494140625,144.89401731938125L210.4549365234375,144.96028134897352L210.55469238281248,148.30187639985232L210.80408203125,144.6694683406502L211.1443603515625,147.32192852832375L211.93908203125,145.27596768289803L212.39130859375,147.51778721641747L212.4345361328125,140.1093333709985L212.4456201171875,148.72324098665266L213.0685400390625,152.49364168681205L213.27359375,143.29131895042957L213.88986328125,149.8099946446717L214.0239794921875,142.28832669854165L214.113759765625,145.69962937217204L214.13038574218749,152.94252287428827L214.24787597656248,142.42832219526173L214.44184570312498,145.92711999379097L214.53716796875,141.47472382821144L214.7466552734375,143.79863654561342L215.48817382812499,146.44777512475846L215.7464306640625,135.82622220106424L216.051240234375,143.61623490527273L216.259619140625,143.67436223030091L216.32612304687498,149.72793113272638L216.4402880859375,140.7546897634864L216.556669921875,143.58133411332966L216.7484228515625,148.14466705843805L217.3358740234375,139.87197106070818L217.5442529296875,139.3566519331187L217.55977050781252,147.62114364020525L217.576396484375,148.4770133608952L217.65398437500002,141.49788607209922L217.89229003906252,129.26826415881516L218.44870605468748,142.77043303772808L219.1137451171875,140.4682072095573L219.2157177734375,149.19045366179196L219.3553759765625,139.4657408103347L219.67570312499998,143.14854912757875L220.19554199218751,141.67349613569678L220.20219238281248,140.73218689598144L220.2398779296875,137.64707194939257L220.3839697265625,142.18027633912862L220.75639160156248,134.3580069422722L220.78853515625,141.68493631593884L221.07893554687502,145.88292446751146L221.1332470703125,143.01917948126794L221.325,145.01928894147275L221.642001953125,138.2637207426131L222.0288330078125,148.9646197233349L222.0620849609375,146.96426959075032L222.34916015625,145.736972329393L222.84239746093752,144.58685342520477L222.8468310546875,137.83236000984908L222.90779296875,141.44363588020207L223.08402832031248,149.61777159310878L223.1172802734375,147.7536980744451L223.23255371093748,142.2794976487756L223.3012744140625,150.1456098055467L223.49302734375,142.22154505848886L223.99291503906252,140.13884046413006L224.45290039062502,149.52424399852754L224.8219970703125,145.67419475242494L224.88185058593749,142.93467050716282L224.9428125,145.71306746285407L224.94835449218752,147.58229977749286L225.2531640625,150.49255882222207L225.3052587890625,146.45591677464543L225.3074755859375,139.82648892626167L225.54356445312501,141.35223477445544L225.667705078125,145.53898797668515L225.902685546875,144.74647031463684L226.02571777343752,139.15494045540692L226.0368017578125,147.8532985255122L226.27843261718752,151.8889704655856L226.9390380859375,144.2814170971513L226.95012207031252,149.0334586177021L227.0277099609375,148.0760943872854L227.285966796875,139.89456459246577L227.9033447265625,142.41124599538745L228.3356201171875,146.04777762964366L228.58722656249998,138.33804070316256L228.60163574218748,144.85358765646816L228.83439941406252,143.62977025397123L228.9252880859375,147.71795245651154L229.09265625,147.08458764776586L229.12369140624997,141.2883725233376L229.3553466796875,142.3971402861178L229.476162109375,136.0801365070045L229.538232421875,143.50608278363944L229.59365234375,143.73163401447238L229.60584472656248,144.23392056785525L230.103515625,146.89008645080028L230.185537109375,148.79943440034984L230.48369628906252,139.71248604655267L230.53468261718749,143.50050610788168L230.624462890625,146.46570439282803L230.96363281249998,147.31506277173756L231.9113134765625,145.3775808803737L231.93458984375,146.7244412127882L231.9423486328125,146.47425897717474L231.967841796875,142.57702475711704L232.012177734375,149.34186378791927L232.295927734375,145.78535984102635L232.45775390625,144.17042097374798L232.686083984375,147.47484038416295L232.6894091796875,140.91699855700136L233.009736328125,139.10266179889442L233.138310546875,146.65363737680016L233.25358398437498,146.2834585301578L234.52048339843748,146.2999157404527L235.2187744140625,144.96412056796254L236.4202783203125,139.73360587209464L236.45796386718752,148.2457552274689L236.649716796875,145.14085157141088L236.90021484374998,146.627072750777L236.94011718750002,146.61113067828117L237.61180664062502,136.50438916236163L237.713779296875,147.82532695513217L237.8855810546875,150.39817815944554L238.2580029296875,139.34707119427623L238.61823242187498,148.3718222223222L238.6348583984375,143.45749828331174L238.7490234375,148.6216385040432L238.8742724609375,142.03576905950905L238.99176269531247,147.27283301129935L239.3131982421875,147.53454032186417L239.963828125,147.64753517992793L240.21875976562498,143.54787900410594L240.2741796875,144.94647730439902L240.52800292968752,147.90221436247228L240.6643359375,148.0165658874437L240.7707421875,140.87734201289715L241.32715820312498,145.11705632619558L241.5366455078125,147.27925368882714L241.8536474609375,146.51394601743667L242.085302734375,148.1595170387998L242.5741064453125,143.92569507770241L242.57854003906252,145.54272746499626L243.02633300781253,149.24623360689728L243.05736816406252,137.12810647040607L243.473017578125,139.8477027129382L243.47634277343752,139.36320448592306L243.61267578124998,144.45296869911255L243.74568359375,149.81126806531103L243.84654785156252,148.97414276674388" style="fill: none;" fill="none"></path></g></g></g></g></g></g><g transform="translate(63, 177)" clip-path="url(#clip_1)"><clipPath id="clip_1"><rect width="266" height="23"></rect></clipPath><g><g><line x1="0" y1="0" x2="0" y2="5" style="visibility: inherit;" fill="rgb(0, 0, 0)" stroke="rgb(204, 204, 204)" stroke-width="1px"></line><line x1="22.16796875" y1="0" x2="22.16796875" y2="5" style="visibility: inherit;" fill="rgb(0, 0, 0)" stroke="rgb(204, 204, 204)" stroke-width="1px"></line><line x1="44.3359375" y1="0" x2="44.3359375" y2="5" style="visibility: inherit;" fill="rgb(0, 0, 0)" stroke="rgb(204, 204, 204)" stroke-width="1px"></line><line x1="66.50390625" y1="0" x2="66.50390625" y2="5" style="visibility: inherit;" fill="rgb(0, 0, 0)" stroke="rgb(204, 204, 204)" stroke-width="1px"></line><line x1="88.671875" y1="0" x2="88.671875" y2="5" style="visibility: inherit;" fill="rgb(0, 0, 0)" stroke="rgb(204, 204, 204)" stroke-width="1px"></line><line x1="110.83984375" y1="0" x2="110.83984375" y2="5" style="visibility: inherit;" fill="rgb(0, 0, 0)" stroke="rgb(204, 204, 204)" stroke-width="1px"></line><line x1="133.0078125" y1="0" x2="133.0078125" y2="5" style="visibility: inherit;" fill="rgb(0, 0, 0)" stroke="rgb(204, 204, 204)" stroke-width="1px"></line><line x1="155.17578125" y1="0" x2="155.17578125" y2="5" style="visibility: inherit;" fill="rgb(0, 0, 0)" stroke="rgb(204, 204, 204)" stroke-width="1px"></line><line x1="177.34375" y1="0" x2="177.34375" y2="5" style="visibility: inherit;" fill="rgb(0, 0, 0)" stroke="rgb(204, 204, 204)" stroke-width="1px"></line><line x1="199.51171875" y1="0" x2="199.51171875" y2="5" style="visibility: inherit;" fill="rgb(0, 0, 0)" stroke="rgb(204, 204, 204)" stroke-width="1px"></line><line x1="221.6796875" y1="0" x2="221.6796875" y2="5" style="visibility: inherit;" fill="rgb(0, 0, 0)" stroke="rgb(204, 204, 204)" stroke-width="1px"></line><line x1="243.84765625" y1="0" x2="243.84765625" y2="5" style="visibility: inherit;" fill="rgb(0, 0, 0)" stroke="rgb(204, 204, 204)" stroke-width="1px"></line><line x1="266.015625" y1="0" x2="266.015625" y2="5" style="visibility: inherit;" fill="rgb(0, 0, 0)" stroke="rgb(204, 204, 204)" stroke-width="1px"></line></g><g transform="translate(0, 8)"><text x="0" y="0" dx="0em" dy="0.95em" style="text-anchor: middle; visibility: hidden; font-family: &quot;Helvetica Neue&quot;, sans-serif; font-size: 12px; font-weight: 200;" fill="rgb(50, 49, 63)" stroke="none" stroke-width="1px">-20k</text><text x="22.16796875" y="0" dx="0em" dy="0.95em" style="text-anchor: middle; visibility: inherit; font-family: &quot;Helvetica Neue&quot;, sans-serif; font-size: 12px; font-weight: 200;" fill="rgb(50, 49, 63)" stroke="none" stroke-width="1px">0</text><text x="44.3359375" y="0" dx="0em" dy="0.95em" style="text-anchor: middle; visibility: hidden; font-family: &quot;Helvetica Neue&quot;, sans-serif; font-size: 12px; font-weight: 200;" fill="rgb(50, 49, 63)" stroke="none" stroke-width="1px">20k</text><text x="66.50390625" y="0" dx="0em" dy="0.95em" style="text-anchor: middle; visibility: inherit; font-family: &quot;Helvetica Neue&quot;, sans-serif; font-size: 12px; font-weight: 200;" fill="rgb(50, 49, 63)" stroke="none" stroke-width="1px">40k</text><text x="88.671875" y="0" dx="0em" dy="0.95em" style="text-anchor: middle; visibility: hidden; font-family: &quot;Helvetica Neue&quot;, sans-serif; font-size: 12px; font-weight: 200;" fill="rgb(50, 49, 63)" stroke="none" stroke-width="1px">60k</text><text x="110.83984375" y="0" dx="0em" dy="0.95em" style="text-anchor: middle; visibility: inherit; font-family: &quot;Helvetica Neue&quot;, sans-serif; font-size: 12px; font-weight: 200;" fill="rgb(50, 49, 63)" stroke="none" stroke-width="1px">80k</text><text x="133.0078125" y="0" dx="0em" dy="0.95em" style="text-anchor: middle; visibility: hidden; font-family: &quot;Helvetica Neue&quot;, sans-serif; font-size: 12px; font-weight: 200;" fill="rgb(50, 49, 63)" stroke="none" stroke-width="1px">100k</text><text x="155.17578125" y="0" dx="0em" dy="0.95em" style="text-anchor: middle; visibility: inherit; font-family: &quot;Helvetica Neue&quot;, sans-serif; font-size: 12px; font-weight: 200;" fill="rgb(50, 49, 63)" stroke="none" stroke-width="1px">120k</text><text x="177.34375" y="0" dx="0em" dy="0.95em" style="text-anchor: middle; visibility: hidden; font-family: &quot;Helvetica Neue&quot;, sans-serif; font-size: 12px; font-weight: 200;" fill="rgb(50, 49, 63)" stroke="none" stroke-width="1px">140k</text><text x="199.51171875" y="0" dx="0em" dy="0.95em" style="text-anchor: middle; visibility: inherit; font-family: &quot;Helvetica Neue&quot;, sans-serif; font-size: 12px; font-weight: 200;" fill="rgb(50, 49, 63)" stroke="none" stroke-width="1px">160k</text><text x="221.6796875" y="0" dx="0em" dy="0.95em" style="text-anchor: middle; visibility: hidden; font-family: &quot;Helvetica Neue&quot;, sans-serif; font-size: 12px; font-weight: 200;" fill="rgb(50, 49, 63)" stroke="none" stroke-width="1px">180k</text><text x="243.84765625" y="0" dx="0em" dy="0.95em" style="text-anchor: middle; visibility: inherit; font-family: &quot;Helvetica Neue&quot;, sans-serif; font-size: 12px; font-weight: 200;" fill="rgb(50, 49, 63)" stroke="none" stroke-width="1px">200k</text><text x="266.015625" y="0" dx="0em" dy="0.95em" style="text-anchor: middle; visibility: hidden; font-family: &quot;Helvetica Neue&quot;, sans-serif; font-size: 12px; font-weight: 200;" fill="rgb(50, 49, 63)" stroke="none" stroke-width="1px">220k</text></g><line x1="0" y1="0" x2="266.015625" y2="0" fill="rgb(0, 0, 0)" stroke="rgb(204, 204, 204)" stroke-width="1px"></line></g></g></g></g></svg>